<svg width="50" height="50" viewBox="0 0 50 50" fill="none" xmlns="http://www.w3.org/2000/svg">
<path d="M35.3636 29.1788H20.5997L21.341 27.6689L33.6579 27.6466C34.0744 27.6466 34.4314 27.3491 34.5058 26.9375L36.2115 17.39C36.2561 17.1396 36.1892 16.8817 36.0255 16.6859C35.9447 16.5895 35.8438 16.5118 35.7299 16.4583C35.616 16.4048 35.4919 16.3767 35.3661 16.376L19.6973 16.3239L19.5634 15.6942C19.4791 15.2925 19.1171 15 18.7056 15H14.8752C14.6431 15 14.4205 15.0922 14.2563 15.2563C14.0922 15.4205 14 15.6431 14 15.8752C14 16.1073 14.0922 16.3299 14.2563 16.494C14.4205 16.6581 14.6431 16.7503 14.8752 16.7503H17.9965L18.5816 19.532L20.0221 26.5061L18.1676 29.5333C18.0713 29.6633 18.0133 29.8176 18.0001 29.9788C17.987 30.1401 18.0192 30.3018 18.0932 30.4456C18.242 30.7407 18.542 30.9266 18.8742 30.9266H20.4311C20.0992 31.3675 19.9199 31.9045 19.9204 32.4563C19.9204 33.8596 21.0609 35 22.4641 35C23.8674 35 25.0078 33.8596 25.0078 32.4563C25.0078 31.9034 24.8243 31.3654 24.4971 30.9266H28.4911C28.1592 31.3675 27.9799 31.9045 27.9804 32.4563C27.9804 33.8596 29.1209 35 30.5241 35C31.9274 35 33.0678 33.8596 33.0678 32.4563C33.0678 31.9034 32.8843 31.3654 32.5571 30.9266H35.3661C35.847 30.9266 36.2412 30.5349 36.2412 30.0514C36.2398 29.8196 36.1467 29.5977 35.9823 29.4342C35.8179 29.2707 35.5955 29.1789 35.3636 29.1788ZM20.0617 18.0495L34.3372 18.0966L32.9389 25.926L21.7253 25.9458L20.0617 18.0495ZM22.4641 33.2397C22.0327 33.2397 21.6807 32.8877 21.6807 32.4563C21.6807 32.0249 22.0327 31.6729 22.4641 31.6729C22.8955 31.6729 23.2476 32.0249 23.2476 32.4563C23.2476 32.6641 23.165 32.8634 23.0181 33.0103C22.8712 33.1572 22.6719 33.2397 22.4641 33.2397ZM30.5241 33.2397C30.0927 33.2397 29.7407 32.8877 29.7407 32.4563C29.7407 32.0249 30.0927 31.6729 30.5241 31.6729C30.9555 31.6729 31.3076 32.0249 31.3076 32.4563C31.3076 32.6641 31.225 32.8634 31.0781 33.0103C30.9312 33.1572 30.7319 33.2397 30.5241 33.2397Z" fill="#595959"/>
</svg>
