<svg width="11" height="16" viewBox="0 0 11 16" fill="none" xmlns="http://www.w3.org/2000/svg">
<path d="M6.79478 7.27782L6.00412 7.09416V2.91362C7.187 3.07549 7.91852 3.81634 8.04303 4.72529C8.0586 4.8498 8.16443 4.94008 8.28895 4.94008H9.68661C9.83292 4.94008 9.94809 4.81245 9.93564 4.66615C9.74576 2.72685 8.14887 1.48171 6.01657 1.26693V0.249027C6.01657 0.112062 5.90451 0 5.76755 0H4.89284C4.75587 0 4.64381 0.112062 4.64381 0.249027V1.27626C2.43992 1.49105 0.715404 2.70817 0.715404 4.98054C0.715404 7.08482 2.2656 8.09961 3.89362 8.48872L4.66249 8.68482V13.1268C3.28661 12.9432 2.51463 12.2086 2.35587 11.2187C2.3372 11.1004 2.23136 11.0132 2.10996 11.0132H0.671825C0.525521 11.0132 0.410346 11.1377 0.422798 11.284C0.562875 12.9961 1.86093 14.5712 4.63136 14.7735V15.751C4.63136 15.8879 4.74342 16 4.88039 16H5.76443C5.9014 16 6.01346 15.8879 6.01346 15.7479L6.00724 14.7611C8.44459 14.5463 10.1878 13.242 10.1878 10.9012C10.1847 8.74086 8.8119 7.77587 6.79478 7.27782ZM4.65937 6.77354C4.48506 6.72374 4.33875 6.67704 4.19245 6.6179C3.14031 6.23813 2.65159 5.6249 2.65159 4.83424C2.65159 3.70428 3.50762 3.05992 4.65937 2.91362V6.77354ZM6.00412 13.1362V8.97432C6.10062 9.00233 6.18778 9.02412 6.27805 9.0428C7.75042 9.49105 8.24537 10.1136 8.24537 11.0693C8.24537 12.2864 7.33019 13.0179 6.00412 13.1362Z" fill="#595959"/>
</svg>
