<svg width="12" height="20" viewBox="0 0 12 20" fill="none" xmlns="http://www.w3.org/2000/svg">
<path d="M8.21156 5.59341C8.35554 5.54145 8.509 5.52099 8.66156 5.53341H10.1416C10.2829 5.53473 10.4231 5.50803 10.5541 5.45485C10.6851 5.40167 10.8042 5.32306 10.9046 5.22357C11.0051 5.12408 11.0848 5.00568 11.1392 4.8752C11.1936 4.74473 11.2216 4.60477 11.2216 4.46341V1.87341C11.2216 1.73205 11.1936 1.59209 11.1392 1.46162C11.0848 1.33114 11.0051 1.21274 10.9046 1.11325C10.8042 1.01376 10.6851 0.935151 10.5541 0.881971C10.4231 0.82879 10.2829 0.802089 10.1416 0.80341H7.95156C7.30999 0.77824 6.67008 0.885072 6.07147 1.11729C5.47287 1.34951 4.92832 1.70216 4.47156 2.15341C3.58552 3.11536 3.11166 4.38619 3.15156 5.69341V6.89341H1.67156C1.38778 6.89341 1.11562 7.00614 0.914958 7.20681C0.714294 7.40747 0.601563 7.67963 0.601562 7.96341V10.7534C0.601563 11.0372 0.714294 11.3094 0.914958 11.51C1.11562 11.7107 1.38778 11.8234 1.67156 11.8234H3.15156V18.1234C3.15417 18.409 3.26879 18.6822 3.47077 18.8842C3.67275 19.0862 3.94594 19.2008 4.23156 19.2034H7.11156C7.39626 19.2008 7.6684 19.0858 7.86878 18.8836C8.06916 18.6813 8.18157 18.4081 8.18156 18.1234V11.8234H10.0416C10.3253 11.8234 10.5975 11.7107 10.7982 11.51C10.9988 11.3094 11.1116 11.0372 11.1116 10.7534V7.96341C11.1129 7.82167 11.0858 7.6811 11.0319 7.55001C10.978 7.41892 10.8983 7.29997 10.7977 7.20021C10.697 7.10045 10.5773 7.02189 10.4457 6.9692C10.3141 6.9165 10.1733 6.89073 10.0316 6.89341H8.18156V6.03341C8.18156 5.88623 8.19158 5.73922 8.21156 5.59341ZM3.80156 10.3634H2.06156V8.36341H3.80156C4.00843 8.36341 4.20683 8.28123 4.35311 8.13495C4.49938 7.98868 4.58156 7.79028 4.58156 7.58341V5.69341C4.53807 5.23687 4.59479 4.77634 4.74777 4.34399C4.90074 3.91165 5.14627 3.51792 5.4672 3.19032C5.78814 2.86272 6.17674 2.60914 6.60584 2.44732C7.03495 2.28549 7.49422 2.21931 7.95156 2.25341H9.80156V4.08341H8.66156C8.38296 4.06153 8.10287 4.09828 7.83934 4.19129C7.57582 4.2843 7.33471 4.4315 7.13156 4.62341C6.82462 5.02586 6.68168 5.52973 6.73156 6.03341V7.56341C6.73156 7.77028 6.81374 7.96867 6.96002 8.11495C7.1063 8.26123 7.30469 8.34341 7.51156 8.34341H9.66156V10.3434H7.51156C7.30378 10.346 7.1054 10.4304 6.9594 10.5783C6.8134 10.7262 6.73155 10.9256 6.73156 11.1334V17.7234H4.61156V11.1534C4.6116 11.048 4.59052 10.9436 4.54957 10.8464C4.50863 10.7492 4.44864 10.6612 4.37315 10.5876C4.29766 10.514 4.2082 10.4562 4.11003 10.4177C4.01186 10.3792 3.90698 10.3607 3.80156 10.3634Z" fill="#5D4C3C"/>
</svg>
