<svg width="50" height="50" viewBox="0 0 50 50" fill="none" xmlns="http://www.w3.org/2000/svg">
<path d="M35.785 19.0986C35.4386 18.2966 34.9392 17.5697 34.3146 16.9589C33.6896 16.3462 32.9526 15.8592 32.1439 15.5246C31.3052 15.1762 30.4057 14.9979 29.4976 15C28.2236 15 26.9806 15.3489 25.9004 16.0079C25.6419 16.1655 25.3964 16.3386 25.1639 16.5273C24.9313 16.3386 24.6858 16.1655 24.4274 16.0079C23.3471 15.3489 22.1041 15 20.8301 15C19.9127 15 19.0237 15.1757 18.1839 15.5246C17.3724 15.8606 16.6411 16.3438 16.0131 16.9589C15.3877 17.5691 14.8881 18.296 14.5427 19.0986C14.1835 19.9333 14 20.8197 14 21.7319C14 22.5925 14.1757 23.4892 14.5246 24.4014C14.8166 25.1638 15.2353 25.9546 15.7702 26.7531C16.6178 28.0168 17.7833 29.3347 19.2305 30.6708C21.6286 32.8855 24.0035 34.4153 24.1043 34.4773L24.7168 34.8701C24.9881 35.0433 25.337 35.0433 25.6083 34.8701L26.2208 34.4773C26.3216 34.4127 28.6939 32.8855 31.0947 30.6708C32.5418 29.3347 33.7073 28.0168 34.5549 26.7531C35.0899 25.9546 35.5111 25.1638 35.8005 24.4014C36.1494 23.4892 36.3251 22.5925 36.3251 21.7319C36.3277 20.8197 36.1442 19.9333 35.785 19.0986ZM25.1639 32.826C25.1639 32.826 15.964 26.9314 15.964 21.7319C15.964 19.0986 18.1425 16.964 20.8301 16.964C22.7192 16.964 24.3576 18.0184 25.1639 19.5586C25.9701 18.0184 27.6085 16.964 29.4976 16.964C32.1852 16.964 34.3637 19.0986 34.3637 21.7319C34.3637 26.9314 25.1639 32.826 25.1639 32.826Z" fill="#595959"/>
</svg>
