<svg width="18" height="18" viewBox="0 0 18 18" fill="none" xmlns="http://www.w3.org/2000/svg">
<path d="M8.99775 4.38213C6.44227 4.38213 4.37988 6.44452 4.37988 9C4.37988 11.5555 6.44227 13.6179 8.99775 13.6179C11.5532 13.6179 13.6156 11.5555 13.6156 9C13.6156 6.44452 11.5532 4.38213 8.99775 4.38213ZM8.99775 12.0013C7.34513 12.0013 5.99647 10.6526 5.99647 9C5.99647 7.34738 7.34513 5.99872 8.99775 5.99872C10.6504 5.99872 11.999 7.34738 11.999 9C11.999 10.6526 10.6504 12.0013 8.99775 12.0013ZM13.8047 3.11678C13.2081 3.11678 12.7263 3.5986 12.7263 4.19525C12.7263 4.79191 13.2081 5.27373 13.8047 5.27373C14.4014 5.27373 14.8832 4.79416 14.8832 4.19525C14.8834 4.05358 14.8556 3.91325 14.8015 3.78233C14.7474 3.6514 14.6679 3.53244 14.5677 3.43226C14.4676 3.33208 14.3486 3.25264 14.2177 3.19851C14.0867 3.14437 13.9464 3.1166 13.8047 3.11678ZM17.9993 9C17.9993 7.75716 18.0106 6.52558 17.9408 5.28499C17.871 3.84402 17.5423 2.56515 16.4886 1.51144C15.4326 0.455477 14.156 0.129006 12.715 0.0592092C11.4722 -0.0105879 10.2406 0.000669702 9 0.000669702C7.75716 0.000669702 6.52558 -0.0105879 5.28499 0.0592092C3.84402 0.129006 2.56515 0.457728 1.51144 1.51144C0.455477 2.5674 0.129006 3.84402 0.0592092 5.28499C-0.0105879 6.52783 0.000669702 7.75941 0.000669702 9C0.000669702 10.2406 -0.0105879 11.4744 0.0592092 12.715C0.129006 14.156 0.457729 15.4348 1.51144 16.4886C2.5674 17.5445 3.84402 17.871 5.28499 17.9408C6.52783 18.0106 7.75941 17.9993 9 17.9993C10.2428 17.9993 11.4744 18.0106 12.715 17.9408C14.156 17.871 15.4349 17.5423 16.4886 16.4886C17.5445 15.4326 17.871 14.156 17.9408 12.715C18.0128 11.4744 17.9993 10.2428 17.9993 9ZM16.018 14.3091C15.8536 14.7189 15.6555 15.0251 15.338 15.3403C15.0206 15.6577 14.7166 15.8559 14.3068 16.0202C13.1225 16.4908 10.3104 16.385 8.99775 16.385C7.68511 16.385 4.87071 16.4908 3.68641 16.0225C3.27663 15.8581 2.97043 15.66 2.65521 15.3425C2.33775 15.0251 2.13962 14.7211 1.97525 14.3113C1.50694 13.1248 1.61276 10.3126 1.61276 9C1.61276 7.68736 1.50694 4.87296 1.97525 3.68866C2.13962 3.27888 2.33775 2.97268 2.65521 2.65746C2.97268 2.34225 3.27663 2.14187 3.68641 1.97751C4.87071 1.50919 7.68511 1.61501 8.99775 1.61501C10.3104 1.61501 13.1248 1.50919 14.3091 1.97751C14.7189 2.14187 15.0251 2.34 15.3403 2.65746C15.6578 2.97493 15.8559 3.27888 16.0202 3.68866C16.4886 4.87296 16.3827 7.68736 16.3827 9C16.3827 10.3126 16.4886 13.1248 16.018 14.3091Z" fill="#5D4C3C"/>
</svg>
