<svg width="147" height="60" viewBox="0 0 147 60" fill="none" xmlns="http://www.w3.org/2000/svg">
<path d="M32.4141 14.1628L32.4593 14.115V14.1123C32.4433 14.1309 32.4274 14.1469 32.4141 14.1628Z" fill="#BF9425"/>
<path d="M13.3559 30.1245C14.071 29.9225 14.741 29.7231 15.3737 29.5264C14.842 29.6885 14.2864 29.8534 13.7015 30.0182C11.9682 30.51 9.98225 31.0231 5.69141 31.7702C5.7366 31.7781 5.78445 31.7834 5.83497 31.7914C9.78286 31.0896 11.689 30.5951 13.3559 30.1245Z" fill="#BF9425"/>
<path d="M102.352 34.6895L102.386 34.7134L102.352 34.6895Z" fill="#BF9425"/>
<path d="M99.3933 34.3096C99.3268 34.3468 99.2604 34.384 99.1992 34.4265C99.2604 34.384 99.3268 34.3494 99.3933 34.3096Z" fill="#BF9425"/>
<path d="M98.7773 34.8222C98.8225 34.7663 98.8677 34.7132 98.9129 34.668C98.8677 34.7132 98.8199 34.7663 98.7773 34.8222Z" fill="#BF9425"/>
<path d="M53.3623 30.252C53.2719 30.337 53.1496 30.454 53.0273 30.571C53.147 30.4567 53.2719 30.337 53.3623 30.252Z" fill="#BF9425"/>
<path d="M31.8186 14.3281C31.8053 14.3414 31.7894 14.3574 31.7734 14.376L31.8186 14.3281Z" fill="#BF9425"/>
<path d="M33.9073 12.7457C31.3232 13.6283 28.8163 15.577 26.7852 17.8501C26.9128 17.7863 27.0324 17.7278 27.1441 17.6719C27.9762 17.2625 28.3643 17.0897 28.7073 16.9488C28.9572 16.8451 29.1831 16.7601 29.3852 16.691C29.2629 16.7362 29.1379 16.7867 28.9997 16.8425C28.67 16.9781 28.2952 17.1429 27.5322 17.5178C27.495 17.5576 27.4578 17.5975 27.4232 17.6374C28.5079 17.0951 28.9572 16.8957 29.3453 16.7362C29.4968 16.675 29.6351 16.6192 29.7707 16.5687C30.0073 16.5022 30.2067 16.4676 30.4193 16.4411C30.656 16.4145 30.9112 16.3985 31.1425 16.4145C31.3738 16.4304 31.5811 16.4756 31.7513 16.5713C31.9241 16.667 32.0597 16.8132 32.1421 16.9621C32.2245 17.111 32.2511 17.2599 32.2378 17.4779C32.2245 17.6932 32.1687 17.9803 31.8204 18.9347C31.9879 18.7566 32.1367 18.5758 32.267 18.3924C33.4261 16.7627 33.0725 15.048 30.4858 15.6462C31.0441 15.2261 31.6582 14.9098 32.3042 14.6918C35.1781 13.7134 38.6607 14.6492 40.6573 16.7654C42.8001 19.0358 43.9007 22.8029 44.0948 25.7113C44.1054 25.8735 44.116 26.0356 44.1213 26.1925C41.3565 22.7896 38.3072 21.2609 33.8302 20.8143C33.5458 20.7851 33.256 20.7611 32.9582 20.7399C40.3861 22.9278 42.6831 27.2054 44.5866 33.2774C44.6504 33.1312 44.7115 32.985 44.7727 32.8361C46.8437 27.7025 46.6841 20.708 43.2653 15.9758C40.5509 12.2114 37.1667 11.6318 33.9073 12.7457Z" fill="#BF9425"/>
<path d="M41.8834 29.6143C41.7478 29.1544 41.5723 28.7131 41.3543 28.2638C41.1363 27.8145 40.8758 27.3599 40.586 26.9558C40.2963 26.5517 39.9719 26.1981 39.605 25.8127C39.2355 25.4298 38.8181 25.0124 38.2944 24.5818C37.7707 24.1511 37.1379 23.7018 36.3298 23.2046C35.7422 22.8431 35.059 22.4603 34.2641 22.0402C33.9663 21.8834 33.6526 21.7212 33.3203 21.5537C33.7988 21.9791 34.2481 22.3938 34.6735 22.8112C35.0989 23.2286 35.5003 23.6486 35.8911 24.0953C36.2819 24.5392 36.6621 25.0098 37.0316 25.5096C37.4038 26.0094 37.7627 26.5384 38.103 27.0808C38.4433 27.6204 38.7596 28.1708 39.0574 28.854C39.3551 29.5346 39.6343 30.3481 39.8151 31.2148C39.9958 32.0841 40.0756 33.0066 40.0357 33.9823C39.9958 34.9579 39.8363 35.9841 39.5864 37.2655C39.7007 37.1592 39.8097 37.0529 39.9187 36.9465C40.7349 36.1383 41.4208 35.2584 41.7877 34.3252C42.2024 33.2671 42.2077 32.1426 42.1625 31.345C42.12 30.5475 42.0216 30.0716 41.8834 29.6143Z" fill="#BF9425"/>
<path d="M35.3007 33.4952C35.2582 33.9338 35.2077 34.3485 35.1332 34.7739C35.0614 35.1993 34.9631 35.6379 34.8062 36.1617C34.6494 36.6854 34.4314 37.2968 34.1097 38.0705C33.788 38.8441 33.3653 39.7826 32.8203 40.9231C32.9399 40.8513 33.0516 40.7795 33.1633 40.7104C33.6046 40.4312 33.9954 40.1494 34.3782 39.7905C34.8594 39.3412 35.3379 38.7643 35.6889 38.222C36.0398 37.6797 36.2604 37.1666 36.4572 36.6269C36.6512 36.0872 36.8214 35.521 36.9437 34.9733C37.066 34.4256 37.1404 33.8993 37.1962 33.3489C37.2521 32.7986 37.2866 32.2244 37.2946 31.6422C37.3026 31.06 37.2813 30.4698 37.2122 29.8663C37.1431 29.2628 37.0208 28.6434 36.8081 27.9787C36.5954 27.3141 36.287 26.6016 35.8377 25.7908C35.5293 25.2325 35.1492 24.629 34.6919 23.967C34.4845 23.6666 34.2639 23.3582 34.022 23.0312C34.2559 23.6454 34.4526 24.209 34.6201 24.738C34.7876 25.2697 34.9232 25.7695 35.0349 26.256C35.1465 26.7425 35.2342 27.2158 35.298 27.6943C35.3645 28.1728 35.4097 28.654 35.4363 29.1458C35.4629 29.6377 35.4709 30.1375 35.4655 30.6373C35.4602 31.1371 35.439 31.6342 35.4097 32.1154C35.3805 32.5966 35.3432 33.0592 35.3007 33.4952Z" fill="#BF9425"/>
<path d="M22.5456 35.8831C22.6546 35.8512 22.7476 35.7901 22.8301 35.7209C22.9523 35.6172 23.056 35.4896 23.1438 35.3647C23.2926 35.152 23.4176 34.9553 23.5346 34.7585C23.6515 34.5618 23.7659 34.3677 23.9706 34.0753C24.1699 33.7908 24.4571 33.4107 24.9329 32.544C24.9462 32.5201 24.9569 32.5015 24.9702 32.4775C23.5558 33.2246 22.7104 33.6154 22.0219 33.9504C21.3333 34.2853 20.7989 34.5618 20.4427 34.7931C20.0838 35.0217 19.9057 35.2025 19.8126 35.4285C19.7222 35.6545 19.7222 35.9256 19.7701 36.2367C19.818 36.5477 19.9163 36.896 20.0865 37.3001C20.2566 37.7042 20.4985 38.1694 20.8043 38.6187C21.11 39.068 21.4769 39.5013 21.9155 39.9932C22.3542 40.4823 22.8593 41.0273 23.3272 41.4793C23.7951 41.9312 24.2258 42.2901 24.5873 42.5719C24.9489 42.8537 25.2387 43.0558 25.6135 43.2791C25.9884 43.5024 26.4456 43.747 27.1528 44.0979C27.86 44.4488 28.8197 44.9114 29.6093 45.0151C28.4475 44.4887 27.8095 44.1856 27.3921 43.965C27.0863 43.8028 26.8949 43.6885 26.7062 43.5662C26.2595 43.2791 25.8102 42.9574 25.4115 42.6543C25.0127 42.3513 24.6671 42.0641 24.3693 41.7956C24.0716 41.5298 23.8217 41.2825 23.5479 40.9901C23.274 40.6977 22.9763 40.3627 22.7024 40.0171C22.4286 39.6688 22.1814 39.3099 21.9873 38.9563C21.7932 38.6028 21.655 38.2572 21.5513 37.9222C21.4476 37.5872 21.3732 37.2602 21.336 36.9518C21.2987 36.6408 21.2961 36.3483 21.3094 36.0772C21.3253 35.8033 21.3546 35.5508 21.4317 35.3248C21.5088 35.0988 21.6284 34.8994 21.756 34.7559C21.8836 34.615 22.0165 34.5299 22.1176 34.4847C22.1814 34.4581 22.2345 34.4475 22.2797 34.4502C22.3063 34.4528 22.3329 34.4555 22.3568 34.4661C22.426 34.49 22.4898 34.5432 22.519 34.6416C22.5509 34.7399 22.5456 34.8835 22.535 35.1254C22.5323 35.37 22.5163 35.713 22.5456 35.8831Z" fill="#BF9425"/>
<path d="M36.6588 47.1794C36.2706 47.0464 36.034 46.9693 35.8878 46.8657C35.7416 46.762 35.6884 46.6317 35.6857 46.4882C35.6831 46.3419 35.7363 46.1771 35.8825 45.8926C36.0234 45.6188 36.2547 45.2254 36.3397 44.5607C36.3424 44.5368 36.3477 44.5155 36.3504 44.4916C36.1909 44.5528 36.034 44.6777 35.8213 44.8319C35.6113 44.9834 35.3455 45.1616 35.0477 45.3583C34.7553 45.555 34.4309 45.7677 34.08 45.9166C34.0773 45.9192 34.0747 45.9192 34.0694 45.9219C33.7131 46.0708 33.325 46.1505 32.9076 46.2064C32.4902 46.2622 32.0462 46.2914 31.5358 46.2888C31.0254 46.2861 30.4538 46.2542 29.9806 46.2143C29.5074 46.1771 29.1352 46.1319 28.5689 45.999C28.0053 45.8634 27.2503 45.6348 26.567 45.3902C25.8838 45.1429 25.275 44.8798 24.6582 44.5847C24.0388 44.2922 23.4087 43.9705 22.877 43.6515C22.3453 43.3325 21.9146 43.0108 21.4361 42.6466C20.9576 42.2824 20.4285 41.8703 19.9606 41.4556C19.4927 41.0382 19.0833 40.6182 18.6712 40.1423C18.2672 39.677 17.8604 39.1639 17.4962 38.5977C17.4882 38.5844 17.4776 38.5711 17.4696 38.5578C17.0974 37.9729 16.7704 37.3322 16.4727 36.415C16.5763 37.0956 16.7837 37.6858 16.9884 38.1962C17.1931 38.7067 17.3925 39.1374 17.6637 39.5946C17.9375 40.0519 18.2831 40.5357 18.642 41.0196C19.0009 41.5034 19.3731 41.9873 19.7719 42.4339C20.1707 42.8805 20.5934 43.29 21.032 43.6941C21.468 44.0981 21.9173 44.4943 22.4729 44.8851C23.0286 45.2732 23.6879 45.656 24.2169 45.9432C24.746 46.2329 25.1447 46.4243 25.7216 46.6477C26.2985 46.8683 27.0562 47.1129 27.8059 47.3203C28.5583 47.525 29.308 47.6871 30.0577 47.8041C30.8074 47.9184 31.5597 47.9876 32.219 48.0407C32.8784 48.0939 33.4473 48.1285 33.979 48.1391C34.5107 48.1497 35.0105 48.1285 35.6273 48.0833C36.244 48.0381 36.9804 47.9636 37.8524 47.6393C37.8498 47.6393 37.8471 47.6366 37.8445 47.6366C37.5786 47.4984 37.0443 47.3123 36.6588 47.1794Z" fill="#BF9425"/>
<path d="M16.0745 33.1233C16.0372 32.8043 16.016 32.5384 16.0053 32.3018C15.9814 31.7622 16.016 31.4112 16.0691 31.1268C16.1462 30.7147 16.2606 30.4302 16.4121 30.1511C16.5636 29.8693 16.755 29.5902 17.0156 29.2499C17.2761 28.9096 17.6031 28.5028 18.6266 27.785C18.5628 27.7957 18.4964 27.8089 18.4326 27.8276C17.9992 27.9472 17.6005 28.221 17.2841 28.4789C16.9943 28.7155 16.7683 28.9441 16.3775 29.3854C16.2818 29.4944 16.1781 29.6114 16.0585 29.7523C16.1835 28.5241 16.3323 27.9498 16.4732 27.4926C16.6141 27.0353 16.7497 26.7003 16.9146 26.3335C17.0794 25.9666 17.2735 25.5731 17.4622 25.2807C17.651 24.9856 17.8371 24.7915 18.1242 24.5044C18.4113 24.2146 18.8021 23.8345 19.6342 23.2363C19.5997 23.2469 19.5651 23.2602 19.5305 23.2709C18.9882 23.4437 18.4778 23.7467 18.1242 24.0152C17.9913 24.1163 17.8796 24.2146 17.7972 24.297C17.9274 23.5527 18.18 23.0289 18.3422 22.6754C18.5043 22.3218 18.5788 22.141 18.7144 21.8937C18.8473 21.6465 19.0414 21.3355 19.2195 21.051C19.3976 20.7665 19.5598 20.5113 19.7751 20.2614C19.9905 20.0115 20.259 19.7723 20.4743 19.5755C20.6896 19.3788 20.8518 19.2273 21.115 19.0412C21.3782 18.8524 21.7398 18.6291 22.0455 18.3792C21.442 18.4696 21.2905 18.4563 21.1841 18.4217C21.0778 18.3872 21.0193 18.334 20.998 18.2117C20.9768 18.0868 20.9874 17.89 21.0618 17.68C21.1363 17.47 21.2745 17.2413 21.4128 17.0579C21.5537 16.8745 21.6919 16.7309 21.9046 16.5182C22.1173 16.3055 22.4017 16.0211 22.7394 15.7366C23.077 15.4548 23.4705 15.173 23.8453 14.9178C24.2202 14.6652 24.5817 14.4419 24.8848 14.2638C25.1879 14.0883 25.4324 13.9554 25.7275 13.8145C26.0226 13.671 26.3709 13.5141 26.6846 13.3812C26.9239 13.2802 27.1472 13.1977 27.3785 13.1153C27.4529 13.0887 27.5247 13.0622 27.6018 13.0356C27.9208 12.9292 28.2771 12.8202 28.6625 12.7192C29.048 12.6182 29.4627 12.5251 29.8004 12.4534C30.138 12.3816 30.3959 12.3337 30.7202 12.2885C31.0446 12.2433 31.4327 12.2035 31.7783 12.1662C32.1239 12.129 32.4297 12.0918 32.871 12.0812C33.3149 12.0705 33.8945 12.0865 34.4076 12.0865C34.2986 12.0439 34.1843 12.0094 34.0673 11.9748C33.5569 11.8339 32.9933 11.7808 32.5493 11.7435C32.0069 11.6983 31.6507 11.6718 31.2041 11.6638C30.7574 11.6558 30.2151 11.6664 29.7844 11.6877C29.3537 11.7063 29.0347 11.7382 28.5721 11.8047C28.1096 11.8711 27.5034 11.9775 26.9053 12.1423C26.5729 12.2327 26.2459 12.3417 25.9482 12.448C25.7063 12.5331 25.4856 12.6182 25.2995 12.69C24.8848 12.8495 24.6508 12.9478 24.3105 13.11C23.9703 13.2722 23.5289 13.5008 23.0717 13.78C22.6144 14.0618 22.1439 14.3941 21.7504 14.7423C21.3596 15.0879 21.0485 15.4495 20.8066 15.7738C20.5647 16.0982 20.3892 16.3906 20.2563 16.6458C20.1234 16.9011 20.033 17.1217 19.9692 17.3557C19.9054 17.5896 19.8655 17.8395 19.8389 18.0549C19.815 18.2702 19.8017 18.4536 19.714 18.661C19.6262 18.8684 19.4641 19.0996 19.2806 19.3416C19.0999 19.5835 18.9005 19.8414 18.6931 20.1498C18.4857 20.4581 18.2677 20.817 18.0684 21.168C17.869 21.5189 17.6882 21.8592 17.5287 22.1862C17.3692 22.5132 17.2309 22.8269 17.1246 23.1113C17.0182 23.3958 16.9411 23.651 16.8162 24.0179C16.6886 24.3874 16.5131 24.8713 16.3829 25.2408C16.2526 25.613 16.1675 25.8735 16.0665 26.2324C15.9655 26.5913 15.8458 27.0513 15.7581 27.4873C15.6704 27.9259 15.6119 28.3406 15.572 28.6544C15.5321 28.9654 15.5109 29.1754 15.4843 29.4652C15.4603 29.755 15.4311 30.1298 15.4338 30.5047C15.4364 30.8795 15.4683 31.257 15.5348 31.6824C15.6066 32.1078 15.7049 32.581 16.0745 33.1233Z" fill="#BF9425"/>
<path d="M22.7178 22.6643C22.662 22.7015 22.6035 22.7414 22.5476 22.7813C22.4918 22.8212 22.444 22.8584 22.4147 22.8983C22.3855 22.9381 22.3775 22.9807 22.3935 23.0259C22.4094 23.0711 22.4519 23.1189 22.5157 23.1694C22.5796 23.2199 22.662 23.2704 22.7577 23.3183C22.8534 23.3662 22.9597 23.4113 23.0714 23.4459C23.1804 23.4805 23.292 23.5071 23.3984 23.5203C23.5047 23.5336 23.6084 23.5336 23.7014 23.5177C23.7945 23.5017 23.8822 23.4672 23.962 23.4167L23.9646 23.414C24.0417 23.3635 24.1135 23.2944 24.18 23.2093C24.2464 23.1242 24.3129 23.0205 24.3767 22.9062C24.4405 22.7919 24.5043 22.667 24.5734 22.5394C24.6426 22.4117 24.7143 22.2788 24.7968 22.1512C24.8792 22.0236 24.9722 21.8987 25.0839 21.779C25.1955 21.6594 25.3285 21.5477 25.4906 21.4414C25.6528 21.335 25.8415 21.2367 26.0675 21.141C25.7512 21.1596 25.4561 21.2234 25.246 21.2712C25.036 21.3164 24.9111 21.3404 24.7941 21.3483C24.6798 21.3537 24.5708 21.3404 24.4751 21.3058C24.3794 21.2712 24.2943 21.2154 24.2597 21.133C24.2278 21.0506 24.2464 20.9416 24.297 20.8618C24.3475 20.7794 24.4272 20.7262 24.5362 20.6624C24.6452 20.5986 24.7808 20.5269 24.8818 20.4046C24.273 20.4205 24.0736 20.3966 23.8397 20.3461C23.6084 20.2982 23.3425 20.2264 23.1299 20.1733C22.9172 20.1228 22.755 20.0935 22.5955 20.0855C22.4413 20.0776 22.2898 20.0882 22.1382 20.1201C22.1356 20.1201 22.1329 20.1201 22.1276 20.1228C21.9734 20.16 21.8219 20.2211 21.6703 20.3354C21.5188 20.4498 21.3752 20.6146 21.3247 20.8352C21.2742 21.0559 21.3194 21.3324 21.4577 21.4866C21.4975 21.3005 21.5454 21.1463 21.6065 21.016C21.6597 20.907 21.7208 20.8113 21.8033 20.7395C21.9202 20.6359 22.0718 20.5721 22.2233 20.5455C22.3057 20.5295 22.3855 20.5215 22.4626 20.5269C22.6779 20.5455 22.8427 20.6571 22.9438 20.7635C23.0448 20.8725 23.0794 20.9761 23.1006 21.0825C23.1219 21.1888 23.1325 21.2925 23.1166 21.3989C23.098 21.5025 23.0554 21.6062 22.9863 21.6966C22.9411 21.7604 22.88 21.8162 22.8029 21.8641C22.7683 21.8854 22.7311 21.9066 22.6885 21.9252C22.6194 21.9545 22.537 21.9811 22.4227 21.9704C22.311 21.9598 22.1648 21.9146 21.9708 21.8056C22.0399 22.0821 22.2153 22.1406 22.3456 22.1805C22.4785 22.2203 22.5663 22.2416 22.6434 22.2682C22.7205 22.2948 22.7869 22.3293 22.8215 22.3772C22.856 22.4277 22.8614 22.4942 22.8401 22.542C22.8188 22.5925 22.771 22.6271 22.7178 22.6643Z" fill="#BF9425"/>
<path d="M17.9524 35.016C18.7553 34.7182 19.5581 34.3832 20.4195 34.0163C21.3314 33.6255 22.307 33.2002 23.2216 32.7376C24.1361 32.275 24.9921 31.7779 25.8801 31.2701C26.768 30.7623 27.6905 30.2466 28.3711 29.8531C29.0544 29.4597 29.4983 29.1858 30.1257 28.7578C30.7531 28.3298 31.5613 27.7449 32.7125 26.9846C32.6965 27.0271 32.6699 27.0723 32.646 27.1175C32.4945 27.4206 32.2446 27.7609 31.9973 28.0746C31.7129 28.4361 31.4364 28.7578 31.1439 29.1167C30.8515 29.4729 30.5431 29.8637 30.2321 30.2067C29.9237 30.5496 29.6153 30.8447 29.2803 31.1531C28.9454 31.4615 28.5865 31.7805 28.0069 32.2165C27.4273 32.6552 26.6245 33.2108 25.04 34.0296C25.9519 33.7771 26.5899 33.5724 27.0738 33.3889C27.4034 33.264 27.6639 33.1523 27.8899 33.0433C28.4456 32.7748 28.7991 32.5356 29.1713 32.2697C29.5409 32.0039 29.929 31.7141 30.3012 31.3578C30.6734 31.0016 31.027 30.5789 31.3167 30.212C31.6065 29.8451 31.8298 29.5341 32.0505 29.1646C32.2712 28.7924 32.4838 28.3617 32.7204 27.8539C32.9571 27.3461 33.199 27.0112 33.5579 25.0173C33.5712 25.5197 33.5765 25.9026 33.5765 26.2216C33.5765 26.7905 33.5579 27.1467 33.526 27.5641C33.4728 28.2155 33.401 28.7658 33.308 29.3161C33.2149 29.8664 33.1033 30.4141 32.9491 30.9484C32.7949 31.4828 32.5982 32.0065 32.3084 32.6047C32.0186 33.2055 31.6358 33.8861 31.2742 34.4842C30.9127 35.0824 30.5697 35.5982 30.0672 36.2734C29.5674 36.946 28.9108 37.7781 28.185 38.7645C28.6263 38.7432 29.0118 38.6448 29.3548 38.5013C29.6924 38.3604 29.9902 38.1796 30.264 37.9855C30.8169 37.5947 31.2716 37.1587 31.6863 36.6483C32.1037 36.1378 32.4785 35.5556 32.8135 34.9309C33.1485 34.3035 33.4409 33.6335 33.6855 32.9264C33.9301 32.2219 34.1268 31.4854 34.2704 30.8049C34.4139 30.1243 34.5043 29.4995 34.5468 28.8509C34.5894 28.2048 34.5841 27.5322 34.5176 26.9341C34.4538 26.3359 34.3288 25.8095 34.2012 25.3443C34.071 24.879 33.938 24.4749 33.7573 23.9831C33.5765 23.4913 33.3718 22.8958 33.1033 22.4359C32.8188 21.952 32.5769 21.6011 32.1994 21.2236C32.008 21.0322 31.79 20.8354 31.4896 20.6148C31.1971 20.3994 30.8276 20.1575 30.3278 19.873C31.3487 20.854 31.6198 21.1465 31.8139 21.399C32.008 21.6543 32.1249 21.8723 32.2127 22.0902C32.3004 22.3056 32.3536 22.5183 32.3881 22.8134C32.42 23.1085 32.4333 23.4886 32.4147 23.8156C32.3988 24.1426 32.3536 24.4165 32.2393 24.7062C32.1249 24.996 32.0133 25.1981 31.8644 25.4719C31.7208 25.7404 31.447 26.0089 31.2662 26.1684C31.0855 26.3306 30.8489 26.4582 30.6814 26.5433C30.6441 26.5619 30.6096 26.5778 30.575 26.5938C30.4501 26.6523 30.3331 26.6948 30.155 26.732C29.9343 26.7772 29.6392 26.7878 29.2644 26.8091C28.8895 26.833 28.4376 26.8596 28.0229 26.9101C27.6081 26.9606 27.2306 27.0351 26.6803 27.184C26.4171 27.2531 26.1167 27.3408 25.8243 27.4418C25.6169 27.5136 25.4122 27.5907 25.2288 27.6758C25.1277 27.7236 25.0294 27.7715 24.9416 27.8194C24.8725 27.386 24.9124 27.1335 24.9921 26.8729C25.0666 26.6283 25.1809 26.3705 25.6036 25.6154C25.6249 25.5782 25.6435 25.5463 25.6647 25.5064C24.8725 25.9584 24.3435 26.4369 23.9527 26.9022C23.5619 27.3674 23.312 27.8193 23.0993 28.3351C22.8866 28.8535 22.7085 29.4357 22.1688 30.8793C22.2937 30.7863 22.4081 30.7038 22.5171 30.6241C23.1923 30.1296 23.6017 29.8531 24.0271 29.5793C24.5216 29.2603 25.0427 28.9492 26.332 28.2181C26.2948 28.2607 26.2629 28.2979 26.2284 28.3378C25.4069 29.2815 24.7795 29.7893 23.9872 30.3104C23.1631 30.8554 22.1555 31.4216 21.0868 31.9427C20.0819 32.4292 19.0211 32.8758 17.8141 33.3172C17.7371 33.3464 17.66 33.373 17.5829 33.4022C16.2775 33.8701 14.7994 34.3407 13.066 34.8325C11.3992 35.3057 9.48768 35.8002 5.52118 36.5021C5.36698 36.5286 5.2181 36.5552 5.05859 36.5845C6.14061 36.7573 7.95106 36.6961 9.32817 36.5978C10.7053 36.4967 11.6172 36.3931 12.5343 36.2708C13.4489 36.1485 14.3687 36.0102 15.2407 35.8241C16.1127 35.638 16.9661 35.3722 17.8141 35.0611C17.8567 35.0532 17.9045 35.0346 17.9524 35.016Z" fill="#BF9425"/>
<path d="M47.8828 37.6724L47.9147 37.6484L47.8828 37.6724Z" fill="#BF9425"/>
<path d="M95.8375 49.6725C95.5982 49.7735 95.3749 49.8692 95.1329 49.9756C94.9043 50.0766 94.6571 50.1882 94.4258 50.2813C94.5055 50.252 94.5826 50.2255 94.6677 50.1909C94.9123 50.0925 95.1808 49.9729 95.4227 49.8639C95.6673 49.7549 95.888 49.6592 96.1272 49.5608C96.3665 49.4598 96.627 49.3535 96.8743 49.2551C96.978 49.2126 97.0816 49.1727 97.1853 49.1328C96.9726 49.2126 96.7812 49.287 96.5845 49.3641C96.3373 49.4651 96.0767 49.5715 95.8375 49.6725Z" fill="#BF9425"/>
<path d="M101.648 34.6441C101.632 34.6308 101.616 34.6175 101.598 34.6016C101.616 34.6175 101.632 34.6308 101.648 34.6441Z" fill="#BF9425"/>
<path d="M98.7539 37.0127C98.7699 37.0286 98.7831 37.0499 98.8018 37.0659C98.7831 37.0499 98.7699 37.0313 98.7539 37.0127Z" fill="#BF9425"/>
<path d="M99.9798 37.2578C99.9267 37.2764 99.8708 37.2897 99.8203 37.303C99.8682 37.2924 99.9213 37.2764 99.9718 37.2605C99.9745 37.2605 99.9772 37.2605 99.9798 37.2578Z" fill="#BF9425"/>
<path d="M52.4219 31.1348C52.4618 31.0949 52.5016 31.0577 52.5415 31.0205C52.5389 31.0232 52.5389 31.0232 52.5362 31.0258C52.5016 31.0604 52.4618 31.0976 52.4219 31.1348Z" fill="#BF9425"/>
<path d="M118.258 50.4069C118.202 50.3404 118.12 50.2819 118.037 50.2341C117.952 50.1836 117.867 50.1464 117.772 50.1118C117.676 50.0772 117.57 50.0453 117.423 50.0055C117.277 49.9656 117.088 49.9177 116.878 49.8646C116.668 49.814 116.434 49.7582 116.206 49.6997C115.974 49.6412 115.748 49.5748 115.515 49.5003C115.281 49.4259 115.039 49.3408 114.802 49.2584C114.565 49.176 114.339 49.0989 114.116 49.0165C113.893 48.9367 113.675 48.8517 113.481 48.7639C113.287 48.6762 113.117 48.5805 112.941 48.4609C112.766 48.3386 112.585 48.1924 112.423 48.0488C112.261 47.9079 112.114 47.7696 111.976 47.65C111.838 47.5277 111.708 47.424 111.564 47.3204C111.42 47.2167 111.264 47.1183 111.117 47.0332C110.971 46.9508 110.838 46.887 110.713 46.8259C110.586 46.7647 110.469 46.7036 110.352 46.6504C110.235 46.5972 110.118 46.5467 109.974 46.4936C109.831 46.4404 109.663 46.3846 109.48 46.3261C109.296 46.2702 109.097 46.2144 108.836 46.1586C108.576 46.1028 108.251 46.0443 107.877 45.9911C107.502 45.9379 107.068 45.8874 106.678 45.8555C106.284 45.8236 105.928 45.805 105.62 45.797C105.308 45.7864 105.045 45.7837 104.785 45.7811C104.524 45.7784 104.266 45.7784 103.998 45.7864C103.727 45.7917 103.442 45.8077 103.136 45.8316C102.828 45.8555 102.498 45.8874 102.182 45.93C101.866 45.9672 101.565 46.0124 101.254 46.0629C100.943 46.1134 100.622 46.1692 100.289 46.233C99.9542 46.2995 99.606 46.3739 99.279 46.4563C98.952 46.5361 98.6462 46.6265 98.3246 46.7275C98.0029 46.8285 97.6679 46.9429 97.3808 47.0465C97.0937 47.1502 96.8571 47.2433 96.6098 47.3416C96.3599 47.44 96.102 47.5463 95.8628 47.6474C95.6235 47.7484 95.4029 47.8441 95.1583 47.9504C94.9137 48.0594 94.6478 48.1791 94.4033 48.2774C94.1587 48.3758 93.9354 48.4502 93.7386 48.5061C93.5419 48.5619 93.3718 48.5991 93.1989 48.6257C93.0261 48.6496 92.8507 48.6603 92.6832 48.6603C92.5157 48.6629 92.3562 48.6576 92.194 48.631C92.0319 48.6044 91.867 48.5619 91.7102 48.5061C91.5533 48.4502 91.4018 48.3838 91.2715 48.312C91.1413 48.2402 91.0323 48.1605 90.9046 48.0488C90.777 47.9371 90.6308 47.7962 90.5032 47.6527C90.3756 47.5118 90.2666 47.3682 90.1603 47.1928C90.0566 47.0173 89.9556 46.8046 89.8678 46.5972C89.7828 46.3925 89.7083 46.1905 89.6419 46.0017C89.5754 45.813 89.5142 45.6402 89.4584 45.478C89.4026 45.3158 89.3547 45.1643 89.2989 45.0234C89.2457 44.8825 89.1819 44.7496 89.1128 44.5901C89.041 44.4306 88.9613 44.2418 88.8523 44.0398C88.7433 43.8404 88.6104 43.625 88.4907 43.4522C88.3711 43.2794 88.2701 43.1465 88.1584 43.0056C88.0467 42.8647 87.9218 42.7158 87.7942 42.5829C87.6666 42.45 87.539 42.3356 87.3768 42.2001C87.2146 42.0671 87.0232 41.9183 86.8398 41.796C86.659 41.6737 86.4889 41.5806 86.324 41.4982C86.1619 41.4158 86.005 41.3414 85.8163 41.2669C85.6275 41.1925 85.4068 41.1154 85.1995 41.0436C84.9921 40.9745 84.7954 40.9107 84.5428 40.8495C84.2903 40.7884 83.9819 40.7272 83.6575 40.6714C83.3359 40.6156 82.9956 40.5677 82.6154 40.5279C82.2352 40.4906 81.8152 40.4614 81.3765 40.4534C80.9379 40.4454 80.478 40.4587 80.042 40.4853C79.606 40.5119 79.1912 40.5544 78.7659 40.6156C78.3405 40.6767 77.9045 40.7565 77.5323 40.8389C77.1601 40.9213 76.8491 41.0064 76.4556 41.126C76.0622 41.2456 75.5863 41.3998 75.1662 41.5434C74.7489 41.6843 74.3926 41.8146 74.1028 41.9156C73.8131 42.0166 73.5951 42.0884 73.3877 42.1469C73.1803 42.2054 72.9863 42.2532 72.7629 42.2745C72.5396 42.2958 72.2897 42.2931 72.0717 42.2612C71.8537 42.2293 71.6703 42.1708 71.4656 42.0778C71.2609 41.9847 71.0296 41.8624 70.8143 41.7189C70.5963 41.578 70.3942 41.4158 70.1523 41.1898C69.9104 40.9638 69.6259 40.6688 69.3627 40.3497C69.0995 40.0307 68.8523 39.6878 68.6183 39.3661C68.3844 39.0444 68.1584 38.744 67.9218 38.4037C67.6852 38.0634 67.4353 37.6806 67.196 37.311C66.9567 36.9389 66.7308 36.5773 66.5021 36.2078C66.2735 35.8356 66.0475 35.4554 65.8162 35.0354C65.5849 34.6153 65.3483 34.158 65.1277 33.7274C64.907 33.294 64.705 32.8899 64.5083 32.4805C64.3115 32.0711 64.1201 31.6644 63.934 31.2656C63.7479 30.8695 63.5671 30.4813 63.3864 30.0746C63.2056 29.6652 63.0221 29.2345 62.8307 28.7666C62.6393 28.3013 62.4373 27.8015 62.2591 27.3522C62.081 26.903 61.9242 26.5042 61.7833 26.1293C61.6397 25.7545 61.5121 25.4062 61.3925 25.0712C61.2728 24.7389 61.1638 24.4199 61.0655 24.1354C60.9671 23.851 60.8767 23.5984 60.8076 23.3857C60.7411 23.1757 60.6959 23.0056 60.6667 22.8753C60.6348 22.745 60.6135 22.6547 60.6002 22.5563C60.5869 22.4579 60.579 22.3489 60.5923 22.2532C60.6056 22.1575 60.6375 22.0698 60.672 21.9927C60.7066 21.9156 60.7438 21.8465 60.7996 21.7667C60.8555 21.687 60.9299 21.5966 61.0283 21.4876C61.124 21.3786 61.2436 21.251 61.3526 21.1366C61.4616 21.0197 61.56 20.9133 61.6557 20.8043C61.7487 20.6927 61.8391 20.5784 61.9561 20.4401C62.0757 20.2992 62.2219 20.137 62.3681 19.9669C62.5144 19.7967 62.6632 19.6186 62.8334 19.4192C63.0035 19.2199 63.1949 18.9965 63.3784 18.7839C63.5645 18.5712 63.7426 18.3691 63.942 18.1352C64.1414 17.9012 64.3567 17.6327 64.5853 17.3536C64.814 17.0744 65.0506 16.782 65.2872 16.4763C65.5238 16.1732 65.7578 15.8568 65.9864 15.5431C66.2177 15.2321 66.441 14.9237 66.6909 14.5807C66.9408 14.2378 67.212 13.8603 67.4831 13.4801C67.7516 13.0973 68.0148 12.7118 68.2647 12.337C68.5146 11.9594 68.7459 11.5952 68.9347 11.2789C69.1234 10.9625 69.2697 10.6966 69.3946 10.4547C69.5196 10.2101 69.6232 9.98948 69.703 9.80605C69.7827 9.62261 69.8359 9.47639 69.8811 9.32751C69.929 9.17864 69.9688 9.0271 69.9954 8.88354C70.022 8.73732 70.0353 8.59642 70.0034 8.49274C69.9742 8.38906 69.8997 8.3226 69.8412 8.28538C69.7827 8.24816 69.7322 8.24284 69.6631 8.25613C69.6711 8.24816 69.6764 8.23752 69.6844 8.23221C69.695 8.22423 69.7056 8.21891 69.7163 8.21094C69.695 8.21094 69.6737 8.2136 69.6498 8.21891C69.5727 8.23486 69.4744 8.27208 69.384 8.34918C69.2936 8.42628 69.2191 8.54325 69.15 8.69213C69.0836 8.84366 69.0224 9.02976 68.9453 9.27966C68.8656 9.52956 68.7672 9.84327 68.6396 10.1703C68.5093 10.4973 68.3525 10.8349 68.2062 11.13C68.06 11.4251 67.9271 11.675 67.7862 11.9329C67.6453 12.1934 67.4911 12.4619 67.3103 12.749C67.1295 13.0361 66.9195 13.3445 66.7201 13.6423C66.5181 13.94 66.324 14.2298 66.1007 14.5409C65.8747 14.8546 65.6195 15.1922 65.3563 15.5405C65.0905 15.8887 64.8193 16.245 64.5721 16.556C64.3248 16.8671 64.0988 17.1356 63.8729 17.4014C63.6442 17.6673 63.4129 17.9305 63.1338 18.2442C62.852 18.5579 62.5197 18.9194 62.2485 19.2172C61.9773 19.5149 61.7673 19.7436 61.5786 19.943C61.3898 20.1424 61.225 20.3098 61.0974 20.4242C61.015 20.4959 60.9512 20.5411 60.8927 20.5784C60.8581 20.5996 60.8262 20.6156 60.797 20.6315C60.7145 20.6687 60.6401 20.6874 60.579 20.6927H60.5497C60.5045 20.6927 60.4673 20.682 60.4327 20.6608C60.3876 20.6342 60.345 20.5916 60.2998 20.5066C60.2573 20.4242 60.2147 20.3045 60.1828 20.0812C60.1536 19.8579 60.1377 19.5336 60.1137 19.1986C60.0898 18.8636 60.0552 18.5207 60.0074 18.1538C59.9595 17.7896 59.8931 17.4014 59.8133 17.0133C59.7336 16.6225 59.6379 16.2317 59.5421 15.8994C59.4491 15.5671 59.356 15.2985 59.2657 15.1045C59.2364 15.046 59.2098 14.9955 59.1832 14.9503C59.1673 14.921 59.1487 14.8944 59.1327 14.8732C59.0902 14.8147 59.0503 14.7775 59.0025 14.7615L58.9706 14.7562C58.9333 14.7562 58.8988 14.7828 58.8828 14.82C58.8669 14.8572 58.8589 14.9024 58.8589 14.9662C58.8589 14.9981 58.8616 15.0353 58.8642 15.0779C58.8882 15.3039 58.9759 15.6734 59.053 16.0403C59.1301 16.4071 59.1965 16.774 59.2577 17.1755C59.3162 17.5795 59.3667 18.0209 59.3986 18.4329C59.4305 18.8423 59.4438 19.2225 59.4624 19.6319C59.4783 19.9722 59.4969 20.3311 59.4969 20.6395C59.4969 20.7006 59.497 20.7618 59.4943 20.8176C59.4837 21.1632 59.4411 21.4184 59.3693 21.6471C59.2949 21.873 59.1886 22.0698 59.0423 22.2639C58.8961 22.4553 58.71 22.6414 58.5133 22.8275C58.3166 23.0136 58.1119 23.1996 57.8779 23.3857C57.644 23.5718 57.3781 23.7606 57.1309 23.9334C56.8863 24.1062 56.6656 24.2604 56.4583 24.3747C56.4556 24.3747 56.4556 24.3774 56.4529 24.3774C56.344 24.4359 56.235 24.4837 56.1711 24.4811C56.1419 24.4811 56.126 24.4731 56.11 24.4598C56.0967 24.4465 56.0834 24.4199 56.0808 24.3721V24.3402C56.0808 24.1115 56.235 23.617 56.3546 23.1943C56.4795 22.7477 56.5646 22.3782 56.6311 22.0033C56.6975 21.6285 56.7454 21.2483 56.7826 20.9186C56.8198 20.589 56.8438 20.3045 56.857 20.0546C56.8703 19.8047 56.8757 19.592 56.8783 19.3687C56.8783 19.281 56.881 19.1906 56.881 19.1029C56.881 18.9673 56.881 18.837 56.8757 18.7147C56.8703 18.5153 56.8597 18.3452 56.8411 18.1405C56.8225 17.9358 56.7959 17.6912 56.756 17.4573C56.7161 17.2233 56.663 17.0053 56.6071 16.8086C56.5513 16.6118 56.4902 16.439 56.4024 16.2503C56.3147 16.0615 56.2004 15.8568 56.0595 15.6601C55.9186 15.4634 55.7538 15.272 55.6022 15.1178C55.4507 14.9662 55.3124 14.8519 55.1822 14.7535C55.0519 14.6552 54.927 14.5728 54.7887 14.4957C54.6478 14.4186 54.4936 14.3441 54.2996 14.283C54.1055 14.2218 53.8795 14.1687 53.72 14.0809C53.5605 13.9959 53.4541 13.8736 53.3345 13.6822C53.2415 13.5359 53.1404 13.3525 53.0554 13.2249C53.0288 13.185 53.0022 13.1505 52.9809 13.1239C52.9411 13.0813 52.9065 13.0548 52.8613 13.0548C52.8267 13.0548 52.7975 13.076 52.7815 13.1026C52.7656 13.1292 52.755 13.1584 52.7496 13.193C52.7443 13.2276 52.7417 13.2648 52.7417 13.3047C52.7417 13.395 52.7523 13.4934 52.7656 13.5785C52.7842 13.6981 52.8028 13.7832 52.8028 13.8603C52.8028 13.9374 52.7869 14.0038 52.7177 14.0809C52.6486 14.1554 52.5183 14.2378 52.3854 14.3202C52.2525 14.4026 52.1196 14.485 51.992 14.5754C51.8644 14.6658 51.7394 14.7615 51.6038 14.8918C51.4682 15.0247 51.322 15.1895 51.2077 15.3517C51.0934 15.5139 51.011 15.6734 50.9472 15.8302C50.8834 15.9871 50.8355 16.1439 50.7956 16.2981C50.7584 16.455 50.7265 16.6145 50.7079 16.8006C50.6999 16.8937 50.6919 16.992 50.6919 17.0984C50.6919 17.2047 50.6973 17.3164 50.7132 17.4307C50.7451 17.6566 50.8116 17.8959 50.9153 18.0873C51.0189 18.2787 51.1598 18.425 51.3034 18.526C51.447 18.627 51.5958 18.6855 51.7607 18.7068C51.8032 18.7121 51.8457 18.7147 51.8909 18.7147C52.0159 18.7147 52.1462 18.6935 52.2844 18.6536C52.4572 18.6004 52.6433 18.5127 52.8374 18.3452C52.8533 18.3319 52.8666 18.3239 52.8826 18.3106C53.0952 18.1166 53.3186 17.8294 53.4648 17.5503C53.6137 17.2712 53.6828 17.0053 53.728 16.7953C53.7705 16.5853 53.7891 16.4258 53.7998 16.2529C53.8077 16.1227 53.8104 15.9871 53.8104 15.8621C53.8104 15.8196 53.8104 15.7771 53.8077 15.7399C53.8051 15.5857 53.7944 15.474 53.7865 15.365C53.7811 15.3012 53.7785 15.2401 53.7785 15.1869C53.7785 15.1497 53.7811 15.1178 53.7838 15.0912C53.7944 15.03 53.8077 15.0167 53.8317 15.0034C53.8503 14.9928 53.8742 14.9875 53.9088 14.9875L53.9539 14.9902C53.9726 14.9928 53.9938 14.9981 54.0151 15.0008C54.0151 14.9875 54.0151 14.9742 54.0177 14.9609C54.0762 14.9715 54.1427 14.9875 54.2225 15.0221C54.3288 15.0672 54.4484 15.1417 54.5707 15.2347C54.693 15.3304 54.8126 15.4474 54.9243 15.5936C55.0386 15.7399 55.1423 15.918 55.2354 16.1174C55.3284 16.3168 55.4082 16.5401 55.4799 16.782C55.5491 17.0239 55.6102 17.2818 55.6501 17.5583C55.6926 17.8374 55.7165 18.1352 55.7378 18.4356C55.7591 18.736 55.7724 19.0338 55.7671 19.374C55.7591 19.7143 55.7298 20.0918 55.69 20.472C55.6501 20.8495 55.6022 21.2244 55.5331 21.6152C55.464 22.006 55.3736 22.4127 55.2805 22.7876C55.1875 23.1624 55.0891 23.508 54.9695 23.851C54.8525 24.1939 54.7143 24.5342 54.5707 24.8745C54.4245 25.2175 54.273 25.5631 54.1028 25.8794C53.9327 26.1958 53.7492 26.4856 53.5392 26.7833C53.3265 27.0811 53.0899 27.3895 52.8427 27.6739C52.5954 27.9611 52.3429 28.2269 51.9042 28.6602C51.4656 29.0936 50.8408 29.6917 50.4314 30.0985C50.0193 30.5052 49.82 30.7232 49.6152 30.9572C49.4079 31.1911 49.1925 31.4464 49.0065 31.6723C48.8177 31.8983 48.6582 32.1004 48.5386 32.2705C48.4163 32.4433 48.3365 32.5869 48.2488 32.7411C48.1637 32.8926 48.0707 33.0548 47.9962 33.2276L47.8154 33.7513C47.7676 33.9214 47.7357 34.0756 47.7118 34.2405C47.6878 34.4053 47.6799 34.5808 47.6852 34.7482C47.6931 34.9131 47.7171 35.0699 47.7649 35.2108C47.8101 35.3517 47.8739 35.4793 47.9484 35.5804C48.0201 35.6814 48.1026 35.7585 48.1956 35.8116C48.2887 35.8648 48.3923 35.8994 48.5013 35.9153C48.6077 35.9313 48.722 35.9366 48.839 35.9206C48.9586 35.9047 49.0835 35.8755 49.2112 35.8249C49.3414 35.7744 49.4743 35.708 49.6179 35.6229C49.6232 35.6202 49.6285 35.6149 49.6339 35.6123C49.7721 35.5298 49.9157 35.4315 50.0672 35.3118C50.2267 35.1869 50.3942 35.0407 50.5803 34.8599C50.7664 34.6791 50.9684 34.4664 51.1678 34.2325C51.3646 33.9985 51.5586 33.7486 51.7394 33.5041C51.9202 33.2595 52.0903 33.0229 52.2897 32.7038C52.4891 32.3848 52.7204 31.986 52.9118 31.6404C53.1032 31.2948 53.2548 31.0024 53.4036 30.71C53.5552 30.4175 53.7014 30.1251 53.837 29.8433C53.9699 29.5615 54.0922 29.2876 54.2597 28.8942C54.4298 28.5034 54.6478 27.9903 54.81 27.6154C54.9722 27.2406 55.0758 26.9987 55.1902 26.7674C55.3045 26.5361 55.4294 26.3101 55.557 26.1267C55.6846 25.9432 55.8149 25.8023 55.9532 25.6694C56.0914 25.5365 56.2376 25.4142 56.3759 25.3052C56.5141 25.1962 56.6417 25.1058 56.7746 25.0101C56.9076 24.9117 57.0431 24.8134 57.1894 24.7017C57.3356 24.5927 57.4898 24.4757 57.6546 24.3508C57.8194 24.2285 57.9922 24.0982 58.1491 23.9813C58.3059 23.8643 58.4442 23.7606 58.5718 23.6675C58.6994 23.5745 58.8137 23.4921 58.9068 23.4256C58.9972 23.3592 59.0636 23.3113 59.1274 23.2847C59.162 23.2714 59.1832 23.2635 59.2045 23.2581C59.2072 23.2581 59.2098 23.2581 59.2151 23.2581C59.2125 23.2608 59.2098 23.2608 59.2098 23.2635C59.2231 23.2608 59.2338 23.2581 59.2391 23.2555C59.263 23.2528 59.2896 23.2528 59.3055 23.2555C59.3534 23.2581 59.388 23.2714 59.4199 23.2954C59.4544 23.3193 59.489 23.3538 59.5235 23.4203C59.5581 23.4841 59.5927 23.5798 59.6591 23.835C59.7229 24.0876 59.8186 24.497 59.925 24.9729C60.034 25.4488 60.1563 25.9858 60.3105 26.5467C60.462 27.105 60.6454 27.6846 60.8368 28.2402C61.0283 28.7958 61.2276 29.3249 61.4483 29.8725C61.669 30.4202 61.9135 30.9891 62.1608 31.5341C62.408 32.0817 62.6553 32.6081 62.9105 33.1079C63.1657 33.6077 63.4262 34.0836 63.6416 34.4877C63.8569 34.8918 64.0271 35.2241 64.1999 35.5538C64.3727 35.8834 64.5481 36.2078 64.7263 36.5135C64.9044 36.8166 65.0798 37.0984 65.258 37.3669C65.4361 37.638 65.6142 37.8933 65.8003 38.1458C65.9864 38.3957 66.1751 38.6403 66.3931 38.9088C66.6111 39.1747 66.8531 39.4671 67.1083 39.7542C67.3635 40.0413 67.6294 40.3258 67.9165 40.6076C68.2062 40.8894 68.5173 41.1739 68.7805 41.3972C69.0463 41.6205 69.267 41.78 69.4744 41.9262C69.6817 42.0698 69.8785 42.1974 70.0672 42.3064C70.256 42.4154 70.4367 42.5031 70.6149 42.5776C70.793 42.6547 70.9711 42.7185 71.1492 42.7663C71.3273 42.8142 71.5081 42.8487 71.7421 42.8673C71.9787 42.886 72.2711 42.8886 72.5476 42.8647C72.8241 42.8408 73.0873 42.7902 73.3079 42.7344C73.5286 42.6786 73.7094 42.6148 73.946 42.535C74.1826 42.4553 74.4777 42.3596 74.7834 42.2559C75.0918 42.1522 75.4135 42.0405 75.7272 41.9369C76.0435 41.8358 76.3546 41.7401 76.6816 41.6524C77.0086 41.5647 77.3569 41.4796 77.7556 41.4105C78.1571 41.3414 78.6117 41.2882 79.0291 41.2536C79.4465 41.2191 79.8266 41.2005 80.2068 41.2005C80.587 41.2005 80.9671 41.2191 81.3367 41.243C81.7062 41.2696 82.0651 41.3015 82.4133 41.3467C82.7616 41.3945 83.0939 41.453 83.4076 41.5275C83.7213 41.6019 84.0138 41.6896 84.2876 41.788C84.5614 41.8864 84.8166 41.9954 85.0639 42.1123C85.3111 42.2293 85.5477 42.3543 85.779 42.5031C86.013 42.652 86.239 42.8301 86.4516 43.0109C86.6617 43.1943 86.8557 43.3858 87.0206 43.5798C87.1854 43.7739 87.321 43.9706 87.4486 44.1753C87.5762 44.38 87.6985 44.5901 87.8101 44.8293C87.9218 45.0686 88.0255 45.3371 88.1052 45.6322C88.185 45.9273 88.2461 46.249 88.294 46.5201C88.3445 46.7913 88.3844 47.0146 88.4429 47.2486C88.5014 47.4799 88.5785 47.7245 88.6582 47.9398C88.738 48.1551 88.823 48.3412 88.9214 48.5326C89.0198 48.7241 89.1288 48.9181 89.2457 49.0883C89.3654 49.2584 89.4956 49.4073 89.6046 49.5296C89.7163 49.6492 89.8093 49.7449 89.9183 49.838C90.03 49.931 90.1549 50.0241 90.2932 50.1145C90.4314 50.2022 90.583 50.2873 90.7398 50.359C90.8967 50.4308 91.0588 50.4893 91.2582 50.5478C91.4603 50.6063 91.7022 50.6621 91.9707 50.694C92.2392 50.7259 92.537 50.7339 92.8055 50.7259C93.074 50.7206 93.3133 50.6993 93.5658 50.6674C93.8184 50.6355 94.0869 50.5956 94.4458 50.5265C94.8047 50.4574 95.2513 50.3564 95.674 50.2554C96.0967 50.1517 96.4982 50.0453 96.9235 49.931C97.3489 49.814 97.7982 49.6891 98.2661 49.5588C98.734 49.4312 99.2178 49.3036 99.707 49.184C100.196 49.0644 100.693 48.95 101.143 48.8596C101.592 48.7693 101.996 48.7028 102.363 48.6523C102.732 48.6018 103.065 48.5645 103.394 48.5433C103.724 48.522 104.048 48.5114 104.349 48.5087C104.652 48.5034 104.931 48.5061 105.223 48.5167C105.516 48.5273 105.811 48.5513 106.098 48.5885C106.385 48.623 106.659 48.6682 106.914 48.7214C107.169 48.7746 107.406 48.8331 107.627 48.8995C107.847 48.966 108.052 49.0351 108.236 49.0989C108.419 49.1627 108.581 49.2212 108.77 49.2877C108.956 49.3541 109.169 49.4312 109.355 49.503C109.541 49.5748 109.695 49.6412 109.94 49.705C110.182 49.7715 110.514 49.838 110.814 49.8646C111.115 49.8911 111.386 49.8805 111.601 49.8486C111.817 49.8167 111.976 49.7635 112.09 49.721C112.205 49.6785 112.271 49.6492 112.354 49.62C112.436 49.5907 112.532 49.5615 112.657 49.5429C112.782 49.5243 112.938 49.5163 113.09 49.5376C113.239 49.5588 113.382 49.604 113.584 49.6758C113.786 49.7476 114.047 49.8406 114.305 49.9284C114.565 50.0161 114.826 50.0959 115.076 50.1783C115.326 50.2607 115.568 50.3431 115.786 50.4202C116.001 50.4946 116.192 50.5611 116.352 50.6196C116.514 50.6754 116.644 50.7179 116.791 50.7631C116.937 50.8083 117.102 50.8535 117.235 50.8907C117.368 50.928 117.469 50.9519 117.572 50.9732C117.676 50.9918 117.788 51.0024 117.891 50.9997C117.995 50.9997 118.091 50.9865 118.176 50.9492C118.234 50.9226 118.282 50.8828 118.319 50.8402C118.335 50.8243 118.354 50.8057 118.364 50.7897C118.402 50.7286 118.41 50.6727 118.396 50.6063C118.349 50.5425 118.317 50.4734 118.258 50.4069ZM52.7124 16.9894C52.7098 16.9947 52.7071 17 52.7044 17.008C52.6858 17.0665 52.6672 17.1276 52.6433 17.1834C52.5715 17.3642 52.4864 17.5264 52.3881 17.6646C52.2897 17.8002 52.1807 17.9119 52.0637 17.9783C51.9468 18.0448 51.8245 18.0661 51.7288 18.0395C51.6357 18.0129 51.5693 17.9331 51.5241 17.8454C51.4789 17.7577 51.4576 17.6566 51.4523 17.5211C51.447 17.3828 51.4549 17.2074 51.4895 17.0133C51.5214 16.8192 51.5772 16.6092 51.657 16.4151C51.7367 16.221 51.8351 16.0482 51.9308 15.9047C52.0265 15.7611 52.1143 15.6495 52.202 15.5484C52.2871 15.4474 52.3695 15.357 52.4705 15.2613C52.5715 15.1656 52.6991 15.0938 52.7682 15.0779C52.7789 15.0752 52.8586 15.0407 52.8905 15.3145C52.9065 15.4581 52.9065 15.6521 52.9012 15.8542C52.8932 16.0536 52.8772 16.2609 52.8453 16.455C52.8161 16.6437 52.7709 16.8245 52.7124 16.9894ZM54.257 14.82C54.2411 14.8173 54.2225 14.812 54.2065 14.812C54.2304 14.8147 54.2437 14.8173 54.257 14.82ZM53.7572 15.0992L53.7173 15.0938L53.7572 15.0992ZM53.5233 28.102C53.5206 28.1206 53.5126 28.1445 53.502 28.1764C53.4541 28.3279 53.3345 28.639 53.1989 28.9447C53.1351 29.0909 53.066 29.2345 52.9942 29.378C52.9942 29.378 52.9942 29.378 52.9942 29.3754C52.9171 29.5322 52.8347 29.6917 52.7443 29.8566C52.5742 30.1703 52.3828 30.5026 52.202 30.7924C52.0239 31.0821 51.8564 31.332 51.6783 31.5952C51.5001 31.8584 51.3087 32.1323 51.0828 32.4353C51.0057 32.539 50.9232 32.6427 50.8435 32.7464C50.8009 32.8022 50.7664 32.8527 50.7212 32.9085C50.466 33.2409 50.1735 33.6024 49.9157 33.7992C49.6578 33.9959 49.4345 34.0304 49.2856 33.9613C49.1341 33.8922 49.057 33.7247 49.041 33.536C49.0277 33.3472 49.0756 33.1398 49.1606 32.9112C49.2431 32.6852 49.3574 32.438 49.5063 32.1934C49.6525 31.9515 49.8332 31.7096 50.0034 31.4995C50.1762 31.2895 50.341 31.1061 50.5191 30.9173C50.6973 30.7286 50.8887 30.5345 51.0854 30.3378C51.2821 30.1437 51.4842 29.947 51.6783 29.7555C51.8723 29.5615 52.0637 29.3727 52.2339 29.2132C52.404 29.0537 52.5556 28.9261 52.755 28.7427C52.9543 28.5592 53.2069 28.3253 53.3451 28.2003C53.3505 28.195 53.3558 28.1923 53.3611 28.187L53.3584 28.1897C53.3717 28.1764 53.3877 28.1604 53.401 28.1498C53.502 28.0647 53.5366 28.0381 53.5233 28.102Z" fill="#BF9425"/>
<path d="M76.5397 30.7684C76.6461 30.7737 76.8109 30.7737 76.981 30.7525C77.1485 30.7339 77.3213 30.6966 77.4436 30.6382C77.4861 30.6169 77.5234 30.5956 77.5553 30.569C77.6137 30.5238 77.6563 30.476 77.6802 30.4281C77.7174 30.3537 77.7174 30.2872 77.7015 30.2261C77.6882 30.1649 77.6589 30.1144 77.6084 30.0719C77.5579 30.0267 77.4888 29.9921 77.4037 29.9762C77.3187 29.9602 77.2203 29.9629 77.106 29.9975C77.0927 30.0001 77.0794 30.0081 77.0661 30.0134C76.9598 30.0506 76.8454 30.1144 76.7338 30.2181C76.6088 30.3351 76.4839 30.5052 76.4174 30.5983C76.3536 30.694 76.3456 30.7153 76.3643 30.7312C76.3829 30.7498 76.4334 30.7631 76.5397 30.7684Z" fill="#BF9425"/>
<path d="M68.8224 32.0659C68.5911 32.0925 68.3838 32.0951 68.211 32.0765C68.0382 32.0579 67.8999 32.0154 67.7962 31.9755C67.6899 31.9356 67.6181 31.8958 67.533 31.8373C67.448 31.7788 67.3469 31.699 67.2379 31.6804C67.1901 31.6724 67.1396 31.6751 67.0917 31.6857C67.0253 31.7017 66.9615 31.7309 66.903 31.7761C66.8019 31.8559 66.7195 31.9782 66.6478 32.1138C66.576 32.2493 66.5175 32.4062 66.4776 32.5816C66.4377 32.7571 66.4218 32.9538 66.443 33.0841C66.4643 33.2144 66.5201 33.2808 66.6026 33.2436C66.6371 33.2277 66.677 33.1878 66.7248 33.132C66.7887 33.0549 66.8604 32.9405 66.9508 32.7677C67.004 32.6747 67.0412 32.6189 67.0784 32.579C67.1156 32.5391 67.1529 32.5152 67.1981 32.5099C67.214 32.5099 67.2326 32.5125 67.2512 32.5152C67.2831 32.5205 67.3204 32.5311 67.3629 32.5471C67.4932 32.5976 67.6713 32.68 67.9318 32.7279C68.1923 32.7731 68.5326 32.7837 68.9234 32.7199C69.1175 32.688 69.3249 32.6401 69.5057 32.5949C69.6864 32.5497 69.838 32.5072 69.931 32.5046C70.0241 32.4992 70.056 32.5338 70.0453 32.587C70.0347 32.6401 69.9842 32.7119 69.9284 32.805C69.8699 32.898 69.8061 33.0097 69.7369 33.1426C69.6678 33.2729 69.5907 33.4244 69.5243 33.5759C69.394 33.8817 69.3116 34.198 69.2903 34.5011C69.2797 34.6526 69.2823 34.8015 69.3169 34.9557C69.3515 35.1099 69.4179 35.2694 69.4897 35.3917C69.5641 35.514 69.6439 35.5991 69.7263 35.6708C69.8087 35.7426 69.8911 35.8038 69.9975 35.8596C70.1038 35.9181 70.2288 35.9739 70.3936 36.0244C70.5558 36.0749 70.7552 36.1175 70.9732 36.1361C71.1912 36.1574 71.4304 36.1547 71.675 36.1308C71.9196 36.1068 72.1721 36.0616 72.4114 35.9978C72.6507 35.934 72.8767 35.849 73.084 35.7559C73.201 35.7027 73.3073 35.6469 73.411 35.5884C73.6742 35.4422 73.8975 35.2854 74.081 35.1391C74.4691 34.8308 74.7004 34.5676 74.9875 34.2618C75.1789 34.0571 75.3943 33.8338 75.4767 33.8258C75.49 33.8258 75.498 33.8312 75.5059 33.8391C75.583 33.77 75.6442 33.7222 75.6814 33.7195C75.7239 33.7168 75.7319 33.7673 75.7292 33.8657C75.7292 33.9641 75.7186 34.1076 75.7239 34.2698C75.7292 34.4293 75.7452 34.6021 75.7851 34.7616C75.8276 34.9185 75.8941 35.062 75.9738 35.1843C76.0536 35.3093 76.1466 35.4156 76.2556 35.5113C76.3646 35.607 76.4922 35.6921 76.6331 35.7639C76.774 35.833 76.9256 35.8888 77.0798 35.9287C77.234 35.9686 77.3935 35.9925 77.5636 36.0058C77.7364 36.0191 77.9199 36.0218 78.1166 36.0058C78.3133 35.9899 78.518 35.9526 78.7254 35.8968C78.9327 35.841 79.1428 35.7666 79.3289 35.6815C79.3555 35.6708 79.3794 35.6549 79.4033 35.6443C79.4857 35.5991 79.5655 35.5486 79.6426 35.4954C79.9696 35.2747 80.2833 34.9956 80.5677 34.6978C80.7113 34.549 80.8469 34.3921 80.9825 34.2193C81.118 34.0438 81.2536 33.8524 81.36 33.6903C81.4637 33.5254 81.5381 33.3925 81.6072 33.2622C81.7455 32.999 81.8651 32.7491 81.9528 32.563C81.998 32.47 82.0326 32.3929 82.1097 32.3637C82.1389 32.353 82.1761 32.3504 82.2134 32.3504C82.3835 32.353 82.6387 32.454 82.87 32.5471C83.0136 32.6029 83.1465 32.6587 83.2821 32.7199C83.4177 32.781 83.5533 32.8475 83.7128 32.9299C83.8723 33.0097 84.0557 33.1027 84.2445 33.2064C84.4332 33.3101 84.63 33.4244 84.8081 33.544C84.9862 33.6637 85.151 33.7913 85.2946 33.9189C85.4381 34.0465 85.5604 34.1741 85.6508 34.2804C85.7412 34.3894 85.797 34.4745 85.8422 34.5729C85.93 34.7669 85.9645 34.9956 85.8901 35.171C85.8529 35.2588 85.7891 35.3332 85.6907 35.3997C85.494 35.5326 85.159 35.631 84.832 35.6602C84.6672 35.6735 84.505 35.6682 84.3402 35.6416C84.1753 35.6124 84.0079 35.5618 83.8484 35.498C83.6915 35.4342 83.5426 35.3598 83.415 35.288C83.2874 35.2162 83.1811 35.1498 83.0747 35.078C82.9684 35.0089 82.862 34.9371 82.7477 34.8653C82.6334 34.7962 82.5138 34.7244 82.4127 34.6845C82.3144 34.642 82.2373 34.6287 82.1549 34.6207C82.0804 34.6154 82.0007 34.6181 81.9209 34.6367C81.9103 34.6393 81.897 34.6393 81.8864 34.642C81.796 34.6686 81.7109 34.7244 81.6631 34.8068C81.6152 34.8919 81.6072 35.0036 81.6232 35.1099C81.6391 35.2162 81.679 35.3119 81.7428 35.3944C81.8039 35.4768 81.8917 35.5486 81.9821 35.6097C82.341 35.8596 82.753 35.9819 83.213 36.0776C83.3299 36.1015 83.4469 36.1255 83.6383 36.1467C83.8271 36.1706 84.0903 36.1972 84.3508 36.2079C84.6113 36.2185 84.8692 36.2158 85.1297 36.2105C85.3929 36.2052 85.6588 36.1999 85.9193 36.1839C86.1799 36.168 86.4324 36.1414 86.6797 36.1095C87.4134 36.0085 88.0674 35.8383 88.6709 35.6283C88.8729 35.5565 89.067 35.4821 89.2824 35.3811C89.3355 35.3545 89.3914 35.3252 89.4472 35.2987C89.5615 35.2535 89.6732 35.2083 89.7955 35.1498C90.0081 35.0488 90.2394 34.9238 90.4255 34.8095C90.5319 34.743 90.6249 34.6819 90.7047 34.626C90.7286 34.6393 90.7499 34.658 90.7711 34.6925C90.8083 34.7537 90.8429 34.8573 90.8961 34.9849C90.9492 35.1126 91.0237 35.2694 91.1088 35.405C91.1938 35.5406 91.2922 35.6576 91.3985 35.7559C91.6112 35.95 91.8558 36.0696 92.0977 36.1414C92.22 36.176 92.3396 36.1999 92.4992 36.2212C92.6587 36.2424 92.8607 36.2584 93.0681 36.2557C93.2781 36.2531 93.4988 36.2318 93.6955 36.1972C93.8922 36.16 94.065 36.1068 94.2272 36.0563C94.3894 36.0032 94.5409 35.95 94.7217 35.8649C94.7828 35.8357 94.8519 35.7985 94.9184 35.7639C95.0194 35.7267 95.1205 35.6895 95.2321 35.6363C95.4129 35.5512 95.6203 35.4369 95.8489 35.296C96.0376 35.1817 96.2397 35.0514 96.4258 34.9477C96.4657 34.9344 96.5082 34.9238 96.5401 34.9158C96.6624 34.8946 96.7262 34.9158 96.7767 34.9504C96.8804 35.0222 96.9442 35.1471 97.0638 35.3173C97.125 35.4023 97.2021 35.498 97.2951 35.5937C97.3908 35.6895 97.5051 35.7878 97.6327 35.8676C97.7604 35.9473 97.9013 36.0111 98.0501 36.0616C98.199 36.1122 98.3559 36.1467 98.5367 36.1733C98.7174 36.1972 98.9195 36.2132 99.1348 36.2025C99.3502 36.1946 99.5735 36.16 99.8021 36.0935C99.9802 36.0404 100.158 35.9606 100.328 35.8702C100.374 35.8463 100.422 35.825 100.467 35.7985C100.677 35.6708 100.871 35.514 101.022 35.3811C101.174 35.2481 101.28 35.1365 101.376 35.0248C101.567 34.7989 101.722 34.5622 101.828 34.3815C101.881 34.2911 101.924 34.214 101.953 34.1581C101.985 34.1023 102.003 34.0704 102.03 34.0491C102.059 34.0279 102.096 34.0172 102.15 34.0226C102.158 34.0226 102.166 34.0279 102.173 34.0279C102.224 34.0385 102.282 34.0598 102.37 34.1023C102.469 34.1502 102.599 34.2246 102.718 34.2725C102.838 34.3203 102.947 34.3389 103.067 34.3442C103.258 34.3522 103.476 34.3203 103.684 34.1821C103.856 34.0678 104.016 33.8737 104.146 33.5653C104.154 33.5467 104.165 33.5307 104.173 33.5095C104.093 33.5733 104.016 33.6264 103.941 33.6716C103.745 33.7913 103.567 33.8471 103.394 33.8817C103.333 33.895 103.274 33.9029 103.186 33.9003C103.099 33.8976 102.987 33.8817 102.881 33.8498C102.777 33.8179 102.681 33.77 102.588 33.7062C102.495 33.6424 102.405 33.56 102.336 33.4882C102.267 33.4164 102.219 33.3579 102.205 33.2782C102.192 33.2011 102.208 33.1027 102.232 33.0097C102.256 32.9166 102.282 32.8262 102.306 32.7013C102.33 32.579 102.349 32.4195 102.344 32.2679C102.338 32.1138 102.309 31.9649 102.269 31.824C102.229 31.6831 102.176 31.5528 102.112 31.4385C102.049 31.3268 101.971 31.2338 101.889 31.154C101.809 31.0743 101.722 31.0131 101.618 30.9759C101.525 30.944 101.418 30.936 101.315 30.9653C101.302 30.9679 101.286 30.9706 101.272 30.9759C101.155 31.0184 101.049 31.1141 100.98 31.1912C100.908 31.271 100.876 31.3321 100.847 31.3933C100.836 31.4146 100.828 31.4332 100.818 31.4518C100.799 31.4917 100.778 31.5262 100.757 31.5448C100.725 31.5714 100.685 31.5608 100.539 31.5528C100.392 31.5448 100.14 31.5369 99.9111 31.5501C99.6851 31.5608 99.4831 31.5927 99.305 31.6299C99.1268 31.6671 98.9726 31.7123 98.8238 31.7761C98.7812 31.7921 98.7414 31.8107 98.7015 31.8319C98.5951 31.8825 98.4968 31.9356 98.4223 31.9782C98.3186 32.0393 98.2628 32.0792 98.191 32.1297C97.9916 32.2733 97.6912 32.4913 97.2951 33.0682C96.6624 34.1369 95.8196 34.6872 95.2853 34.9717C95.2162 35.0089 95.1497 35.0434 95.0912 35.0727C94.8413 35.195 94.7137 35.2455 94.5356 35.3093C94.3601 35.3731 94.1341 35.4502 93.9268 35.5007C93.7168 35.5512 93.5253 35.5725 93.3499 35.5805C93.1744 35.5884 93.0123 35.5831 92.8581 35.5618C92.7039 35.5406 92.555 35.498 92.4088 35.4342C92.2625 35.3678 92.119 35.2774 92.0153 35.195C91.9116 35.1152 91.8505 35.0461 91.7973 34.9849C91.7441 34.9238 91.7016 34.868 91.6591 34.7856C91.5315 34.5436 91.4092 34.0624 91.5288 33.4084C91.5687 33.1905 91.6351 32.9538 91.7415 32.6375C91.8505 32.3185 91.9994 31.9223 92.1456 31.5262C92.2918 31.1301 92.438 30.7366 92.5603 30.4309C92.6826 30.1252 92.7783 29.9045 92.89 29.7769C92.975 29.6812 93.0681 29.636 93.1638 29.6094C93.193 29.6015 93.2249 29.5935 93.2542 29.5882C93.3791 29.5616 93.4988 29.5509 93.6476 29.5509C93.7965 29.5509 93.972 29.5642 94.1395 29.5855C94.3043 29.6068 94.4585 29.6387 94.6047 29.6786C94.7509 29.7184 94.8892 29.7663 94.9982 29.7849C95.1072 29.8035 95.1869 29.7902 95.256 29.7636C95.3012 29.745 95.3411 29.7184 95.3624 29.6839C95.373 29.6679 95.3836 29.6493 95.3863 29.628C95.3916 29.5669 95.3464 29.4871 95.2614 29.4287C95.1736 29.3702 95.046 29.3303 94.9264 29.3037C94.8067 29.2771 94.6977 29.2612 94.5675 29.2426C94.4372 29.2239 94.2857 29.2027 94.1474 29.1894C94.0092 29.1761 93.8816 29.1708 93.6875 29.1708C93.4934 29.1708 93.2303 29.1734 93.1186 29.0857C93.0069 28.998 93.0442 28.8199 93.0893 28.6284C93.1345 28.437 93.1851 28.2297 93.2276 28.0117C93.2728 27.7937 93.31 27.5597 93.3127 27.4135C93.3127 27.2646 93.2808 27.2035 93.2356 27.1689C93.2116 27.1503 93.1851 27.1397 93.1558 27.1397C93.1319 27.137 93.108 27.1397 93.084 27.1476C93.0255 27.1689 92.9591 27.2194 92.8926 27.3204C92.8288 27.4215 92.765 27.5703 92.7065 27.7352C92.648 27.9 92.5922 28.0755 92.5417 28.235C92.4912 28.3945 92.4433 28.5301 92.3822 28.6816C92.3184 28.8331 92.2413 28.9953 92.1456 29.0963C92.1243 29.1203 92.1004 29.1415 92.0765 29.1601C91.9994 29.2213 91.9169 29.2532 91.8398 29.2771C91.7388 29.3064 91.6538 29.317 91.5315 29.3303C91.4092 29.3436 91.2523 29.3622 91.0822 29.3914C90.912 29.4207 90.7339 29.4632 90.5558 29.5111C90.4202 29.5483 90.2873 29.5908 90.1783 29.636C90.1464 29.6493 90.1145 29.6626 90.0879 29.6732C89.9682 29.7291 89.9018 29.7849 89.8725 29.8567C89.8433 29.9258 89.8513 30.0082 89.9337 30.0561C90.0161 30.1039 90.1756 30.1172 90.3458 30.08C90.5159 30.0428 90.702 29.9524 90.8642 29.8912C91.029 29.8274 91.1699 29.7902 91.2975 29.7743C91.4251 29.7583 91.5394 29.7663 91.6351 29.7875C91.7335 29.8088 91.8159 29.846 91.8611 29.9311C91.9037 30.0162 91.909 30.1464 91.8691 30.3458C91.8292 30.5452 91.7441 30.8111 91.6564 31.0716C91.5687 31.3321 91.4756 31.5847 91.3852 31.8346C91.2975 32.0845 91.2124 32.3291 91.0715 32.6561C90.928 32.9831 90.7259 33.3898 90.4867 33.7089C90.25 34.0305 89.9736 34.2645 89.7503 34.4293C89.5854 34.5516 89.4498 34.634 89.3249 34.7058C89.2797 34.7324 89.2345 34.7563 89.1893 34.7776C89.0245 34.8627 88.8703 34.9318 88.7028 34.9929C88.538 35.0514 88.3599 35.1019 88.2003 35.1418C88.0408 35.1817 87.8946 35.2136 87.7431 35.2322C87.5889 35.2508 87.4294 35.2535 87.3204 35.2348C87.2114 35.2136 87.1502 35.171 87.1103 35.1285C86.9934 34.9982 87.0811 34.868 87.0253 34.6579C87.0067 34.5888 86.9721 34.5117 86.9056 34.4054C86.8392 34.3017 86.7408 34.1741 86.6079 34.0279C86.475 33.8817 86.3048 33.7195 86.0709 33.5361C85.8369 33.3526 85.5365 33.1453 85.2441 32.9751C84.9516 32.805 84.6672 32.672 84.3854 32.5471C84.1036 32.4221 83.8271 32.3052 83.54 32.1882C83.2528 32.0686 82.9551 31.9463 82.7105 31.8585C82.4633 31.7708 82.2692 31.715 82.115 31.6857C82.0087 31.6671 81.9236 31.6591 81.8571 31.6618C81.8252 31.6645 81.796 31.6671 81.7694 31.6724C81.695 31.6937 81.6577 31.7389 81.6125 31.8373C81.5673 31.933 81.5115 32.0818 81.4371 32.2626C81.3626 32.4434 81.2669 32.6561 81.1898 32.8262C81.1127 32.9964 81.0516 33.124 80.9718 33.2622C80.8921 33.4031 80.7911 33.552 80.6874 33.6982C80.581 33.8444 80.4694 33.9853 80.3311 34.1395C80.1929 34.2937 80.0281 34.4639 79.826 34.6234C79.6266 34.7856 79.39 34.9398 79.2039 35.0461C79.2039 35.0461 79.2013 35.0461 79.2013 35.0488C79.0152 35.1551 78.8796 35.2109 78.7307 35.2535C78.5818 35.296 78.4223 35.3226 78.2628 35.3412C78.106 35.3571 77.9518 35.3651 77.8029 35.3625C77.654 35.3571 77.5078 35.3412 77.3775 35.3173C77.2472 35.2907 77.1329 35.2561 77.0133 35.2056C76.8937 35.1551 76.7687 35.0886 76.6464 34.9903C76.5241 34.8919 76.4072 34.759 76.3487 34.5809C76.2875 34.4054 76.2849 34.1847 76.2955 33.9853C76.3061 33.786 76.3301 33.6105 76.3806 33.4031C76.4284 33.1984 76.5029 32.9618 76.5614 32.7438C76.6172 32.5258 76.6597 32.3264 76.673 32.1377C76.6863 31.9463 76.673 31.7655 76.6092 31.6538C76.5507 31.5528 76.4524 31.5129 76.362 31.5236C76.354 31.5236 76.346 31.5236 76.338 31.5236C76.2397 31.5422 76.1546 31.6193 76.0828 31.707C76.011 31.7947 75.9499 31.8931 75.8755 32.0207C75.801 32.1483 75.7133 32.3025 75.6468 32.4168C75.5804 32.5311 75.5299 32.6029 75.4607 32.7093C75.3889 32.8156 75.2986 32.9565 75.1842 33.1134C75.0726 33.2702 74.9397 33.4403 74.7802 33.6238C74.6206 33.8099 74.4372 34.0119 74.2192 34.2033C74.0039 34.3948 73.7566 34.5782 73.5014 34.7377C73.4216 34.7856 73.3446 34.8334 73.2621 34.8759C73.0814 34.9743 72.9006 35.0594 72.7171 35.1232C72.4566 35.2136 72.1961 35.2561 71.9648 35.2747C71.7335 35.2907 71.5288 35.28 71.3453 35.2588C71.1593 35.2375 70.9944 35.2056 70.8482 35.1524C70.702 35.0993 70.577 35.0248 70.476 34.9158C70.3723 34.8068 70.2926 34.6659 70.25 34.4878C70.2102 34.3097 70.2075 34.097 70.2341 33.887C70.2607 33.677 70.3165 33.4723 70.4255 33.2117C70.5345 32.9512 70.6967 32.6348 70.8057 32.4142C70.9147 32.1962 70.9732 32.0792 70.9891 31.9489C71.0051 31.8187 70.9758 31.6751 70.8828 31.6219C70.7924 31.5688 70.6382 31.6033 70.5185 31.6405C70.3989 31.6778 70.3112 31.715 70.157 31.7708C70.0055 31.824 69.7875 31.8931 69.5482 31.9516C69.3116 31.9915 69.0537 32.0393 68.8224 32.0659ZM90.1065 34.9371C89.9443 35.0355 89.7529 35.1418 89.5668 35.2348C89.6838 35.171 89.8008 35.1046 89.9018 35.0434C90.0879 34.9265 90.2341 34.8228 90.3511 34.7483C90.4415 34.6899 90.5079 34.6553 90.5664 34.6367C90.5611 34.6393 90.5584 34.6393 90.5558 34.642C90.4388 34.7164 90.2952 34.8201 90.1065 34.9371ZM101.333 31.5076C101.357 31.4917 101.387 31.481 101.416 31.4757C101.413 31.4784 101.413 31.481 101.411 31.4837C101.408 31.4837 101.408 31.4863 101.405 31.4863C101.408 31.4863 101.408 31.4837 101.411 31.4837C101.421 31.4784 101.434 31.473 101.445 31.4677C101.453 31.4651 101.464 31.4624 101.474 31.4598C101.485 31.4571 101.498 31.4571 101.512 31.4598C101.527 31.4624 101.546 31.4624 101.565 31.473C101.631 31.5076 101.714 31.5953 101.775 31.7176C101.836 31.8399 101.878 31.9968 101.897 32.1324C101.897 32.143 101.897 32.1483 101.9 32.1589C101.913 32.2812 101.91 32.3823 101.902 32.4567C101.894 32.5365 101.881 32.587 101.857 32.6215C101.852 32.6295 101.844 32.6375 101.836 32.6428C101.812 32.6614 101.78 32.6641 101.73 32.6401C101.793 32.7066 101.854 32.7571 101.908 32.7864C101.905 32.7996 101.902 32.8156 101.897 32.8262C101.889 32.8448 101.884 32.8661 101.873 32.8821C101.844 32.9246 101.804 32.9485 101.719 32.9033C101.647 32.8661 101.541 32.7757 101.45 32.6561C101.437 32.6375 101.421 32.6215 101.408 32.6003C101.363 32.5338 101.325 32.462 101.291 32.3849C101.264 32.2998 101.243 32.2174 101.227 32.1377C101.214 32.0659 101.2 31.9994 101.185 31.9383C101.185 31.9037 101.185 31.8718 101.185 31.8399C101.19 31.7735 101.198 31.715 101.211 31.6698C101.243 31.5767 101.283 31.5395 101.333 31.5076ZM98.9487 32.3849C99.0604 32.3158 99.18 32.2493 99.3076 32.1908C99.3209 32.1855 99.3315 32.1802 99.3448 32.1776C99.3634 32.1696 99.3821 32.1643 99.4007 32.1563C99.4379 32.1403 99.4751 32.127 99.515 32.1138C99.5309 32.1084 99.5469 32.1031 99.5655 32.1005C99.5336 32.1191 99.4964 32.135 99.4645 32.1563C99.3528 32.2281 99.2491 32.3025 99.1401 32.4009C99.1242 32.4142 99.1109 32.4328 99.0949 32.4461C99.1295 32.4195 99.1641 32.3902 99.2013 32.3663C99.2996 32.2972 99.406 32.2334 99.5203 32.1776C99.6213 32.127 99.7277 32.0872 99.834 32.0579C99.7861 32.0712 99.7356 32.0872 99.6878 32.1058C99.7383 32.0872 99.7888 32.0712 99.8367 32.0579C99.8473 32.0553 99.8579 32.0499 99.8686 32.0473C99.9855 32.018 100.1 32.0048 100.198 31.9994C100.297 31.9915 100.382 31.9915 100.464 31.9888C100.549 31.9861 100.632 31.9808 100.682 32.042C100.733 32.1005 100.749 32.2254 100.77 32.353C100.791 32.478 100.818 32.6056 100.879 32.7545C100.913 32.8395 100.959 32.9273 101.009 33.0123C101.009 33.0123 101.009 33.0123 101.009 33.015C101.049 33.0788 101.091 33.1426 101.137 33.1958C101.243 33.3234 101.368 33.4084 101.429 33.4749C101.44 33.4855 101.445 33.4962 101.453 33.5042C101.472 33.5307 101.48 33.5547 101.482 33.5839C101.482 33.5866 101.482 33.5866 101.482 33.5892C101.482 33.6158 101.477 33.6477 101.464 33.6849C101.432 33.778 101.363 33.9162 101.27 34.0624C101.177 34.2113 101.054 34.3682 100.937 34.5064C100.82 34.642 100.703 34.751 100.578 34.8547C100.491 34.9291 100.395 34.9929 100.302 35.0488C100.27 35.0674 100.241 35.0886 100.209 35.1046C100.201 35.1072 100.196 35.1126 100.188 35.1179C100.177 35.1232 100.169 35.1258 100.161 35.1285C100.166 35.1285 100.169 35.1258 100.174 35.1258C100.177 35.1258 100.18 35.1232 100.182 35.1232C100.142 35.1445 100.105 35.1684 100.065 35.187C99.9217 35.2535 99.7835 35.2907 99.6532 35.3173C99.5256 35.3465 99.406 35.3678 99.281 35.3678C99.1561 35.3704 99.0258 35.3518 98.8955 35.304C98.7626 35.2561 98.627 35.1817 98.5047 35.078C98.3825 34.9743 98.2761 34.8467 98.1937 34.7111C98.1139 34.5755 98.0581 34.4293 98.0289 34.2884C97.9996 34.1475 97.9943 34.0066 98.0049 33.8604C98.0156 33.7142 98.0448 33.56 98.098 33.4111C98.1512 33.2649 98.2283 33.1213 98.3213 32.9911C98.417 32.8581 98.526 32.7358 98.6324 32.6375C98.7334 32.5338 98.8371 32.4567 98.9487 32.3849ZM95.3278 35.522C95.5565 35.3837 95.8037 35.2216 96.0164 35.1099C96.0669 35.0833 96.1121 35.062 96.1573 35.0408C95.9579 35.1498 95.7372 35.2907 95.5325 35.4183C95.3039 35.5565 95.0965 35.6735 94.9157 35.7586C94.9131 35.7586 94.9104 35.7612 94.9104 35.7612C95.0434 35.6895 95.1789 35.6124 95.3278 35.522ZM67.3124 32.4514C67.3044 32.4594 67.2938 32.4647 67.2858 32.4753C67.2938 32.462 67.3017 32.4567 67.3124 32.4514Z" fill="#BF9425"/>
<path d="M142.046 34.9931C141.812 34.9904 141.642 35.1127 141.445 35.1978C140.467 35.6125 139.701 35.8412 138.763 35.0755C137.433 33.9935 138.348 33.0205 138.848 31.9172C139.393 30.7102 139.954 29.5112 140.517 28.3122C140.65 28.0304 140.81 27.7619 140.889 27.4509C140.919 27.3419 140.887 27.2807 140.791 27.2276C140.618 27.1292 140.483 27.1 140.371 27.1186C140.02 27.1744 139.919 27.7008 139.757 28.0544C139.459 28.703 139.14 29.4129 138.864 30.1094C138.289 31.553 137.819 32.9912 136.758 34.2248C136.46 34.5704 136.17 34.8362 135.809 35.0383C135.62 35.1446 135.41 35.235 135.168 35.3095C134.4 35.5461 133.257 35.0117 134.086 34.5119C134.461 34.2859 134.823 34.0972 135.192 33.9084C135.291 33.8579 135.392 33.8074 135.49 33.7569C135.636 33.6824 135.785 33.6053 135.934 33.5229C135.987 33.4937 136.048 33.4644 136.109 33.4325C136.29 33.3421 136.497 33.2464 136.697 33.1401C137.279 32.8291 137.774 32.4489 137.162 32.0076C136.604 31.6061 135.737 31.747 134.948 32.1219C134.121 32.5153 133.376 33.1693 133.158 33.7356C132.975 34.2088 133.084 34.6023 132.632 34.8841C132.592 34.9107 132.547 34.9346 132.496 34.9585C132.13 35.1313 131.912 35.1978 131.563 35.2802C130.625 35.5035 129.91 35.4982 129.346 34.7139C128.471 33.4963 130.277 31.8029 127.743 31.6407C126.802 31.5796 126.012 31.6832 125.297 32.0235C124.8 32.2601 124.337 32.6111 123.885 33.1055C122.546 34.5677 123.117 36.1549 125.146 36.1176C125.97 36.1017 126.674 35.9076 127.365 35.5514C127.642 35.445 127.913 35.3121 128.182 35.1553C128.644 35.1021 128.889 35.6604 129.245 35.8598C130.245 36.4207 131.316 35.8917 131.699 35.7428C131.805 35.7003 131.922 35.6418 132.044 35.5806C132.108 35.554 132.167 35.5301 132.212 35.5115C132.294 35.4796 132.382 35.4371 132.472 35.3892C132.736 35.3041 132.98 35.3148 133.145 35.5966C133.743 36.3117 135.102 36.0671 136.12 35.5062C136.444 35.3281 136.734 35.118 136.955 34.8974C137.088 34.7645 137.205 34.6927 137.314 34.6581C137.901 34.472 138.202 35.5062 138.659 35.7906C139.395 36.2452 140.049 36.2452 140.849 36.0592C141.121 35.9953 141.365 35.9156 141.589 35.78C141.719 35.7003 141.844 35.6045 141.963 35.4796C142.112 35.3227 142.375 34.9957 142.046 34.9931ZM136.293 32.3744C136.279 32.3771 136.264 32.3798 136.25 32.3824H136.253C136.266 32.3798 136.279 32.3771 136.293 32.3744ZM135.288 32.7121C135.298 32.7068 135.312 32.7014 135.325 32.6935C135.352 32.6802 135.378 32.6669 135.407 32.6563C135.41 32.6563 135.413 32.6536 135.415 32.6536C135.426 32.6483 135.439 32.643 135.453 32.6376C135.482 32.6243 135.514 32.6111 135.546 32.5978C135.559 32.5924 135.572 32.5871 135.586 32.5818C135.628 32.5659 135.671 32.5499 135.713 32.534C135.716 32.534 135.719 32.5313 135.724 32.5313H135.727C135.774 32.5153 135.822 32.4994 135.87 32.4834C135.878 32.4808 135.883 32.4781 135.891 32.4781C135.939 32.4648 135.984 32.4489 136.03 32.4383C136.032 32.4383 136.035 32.4356 136.04 32.4356C136.085 32.4223 136.131 32.4117 136.173 32.4037C136.176 32.4037 136.181 32.401 136.184 32.401C136.226 32.3904 136.269 32.3824 136.309 32.3771C136.325 32.3744 136.338 32.3718 136.351 32.3718C136.367 32.3691 136.383 32.3691 136.396 32.3691C136.41 32.3691 136.42 32.3665 136.434 32.3665C136.447 32.3665 136.46 32.3665 136.471 32.3691C136.482 32.3691 136.49 32.3691 136.497 32.3718C136.508 32.3744 136.516 32.3771 136.524 32.3798C136.529 32.3824 136.537 32.3851 136.543 32.3877C136.548 32.3931 136.553 32.3984 136.556 32.4037C136.559 32.4064 136.561 32.4117 136.564 32.4143C136.567 32.4223 136.564 32.4303 136.561 32.4409C136.561 32.4462 136.561 32.4489 136.559 32.4542C136.551 32.4702 136.54 32.4888 136.524 32.51C136.452 32.5978 136.357 32.6828 136.248 32.7653C136.189 32.8104 136.125 32.853 136.061 32.8955C136.056 32.9008 136.048 32.9035 136.043 32.9088C135.984 32.9487 135.923 32.9859 135.862 33.0258C135.857 33.0284 135.849 33.0338 135.843 33.0364C135.711 33.1188 135.578 33.1959 135.458 33.2677C135.407 33.297 135.36 33.3262 135.314 33.3554C135.277 33.3794 135.235 33.4033 135.187 33.4299C135.091 33.483 134.982 33.5389 134.87 33.5867C134.87 33.5867 134.87 33.5867 134.868 33.5867C134.817 33.608 134.769 33.6266 134.722 33.6452C134.695 33.6532 134.671 33.6638 134.647 33.6691C134.639 33.6718 134.634 33.6745 134.626 33.6745C134.594 33.6824 134.562 33.6904 134.533 33.6931C134.53 33.6931 134.528 33.6931 134.525 33.6931C134.501 33.6957 134.48 33.6957 134.461 33.6931C134.456 33.6931 134.45 33.6904 134.445 33.6904C134.427 33.6851 134.408 33.6798 134.397 33.6665C134.397 33.6665 134.397 33.6638 134.395 33.6638C134.384 33.6532 134.381 33.6346 134.379 33.616C134.379 33.6107 134.379 33.6053 134.379 33.5974C134.381 33.5734 134.384 33.5469 134.397 33.5123C134.482 33.2943 134.644 33.1374 134.849 32.9886C134.791 33.0311 134.735 33.0736 134.684 33.1188C134.746 33.0657 134.812 33.0125 134.886 32.962C134.889 32.9593 134.892 32.9567 134.894 32.9567C134.966 32.9061 135.046 32.8556 135.128 32.8051C135.075 32.837 135.027 32.8689 134.977 32.9008C135.043 32.8556 135.112 32.8131 135.187 32.7679C135.219 32.7493 135.251 32.7307 135.288 32.7121ZM136.242 32.7599C136.2 32.7945 136.155 32.8264 136.107 32.8583C136.155 32.8264 136.2 32.7945 136.242 32.7599ZM127.852 35.2775C127.91 35.2403 127.964 35.2164 128.017 35.1951C127.852 35.2962 127.687 35.3865 127.522 35.469C127.631 35.4078 127.743 35.3467 127.852 35.2775ZM125.956 32.6243C126.084 32.5632 126.214 32.5047 126.347 32.4569C126.345 32.4569 126.345 32.4595 126.342 32.4595C126.318 32.4702 126.297 32.4834 126.275 32.4941C126.408 32.425 126.544 32.3612 126.68 32.3053C126.749 32.2787 126.818 32.2548 126.887 32.2309C126.929 32.2176 126.969 32.199 127.012 32.1884C127.089 32.1644 127.163 32.1511 127.241 32.1325C127.28 32.1245 127.318 32.1113 127.358 32.1033C127.472 32.082 127.586 32.0687 127.698 32.0634C127.754 32.0607 127.804 32.0607 127.855 32.0607C127.865 32.0607 127.873 32.0634 127.884 32.0634C127.921 32.0661 127.961 32.0661 127.996 32.0714C128.006 32.0714 128.014 32.074 128.025 32.0767C128.057 32.082 128.089 32.0847 128.121 32.0926C128.128 32.0953 128.136 32.098 128.144 32.098C128.174 32.1059 128.203 32.1113 128.23 32.1219C128.235 32.1245 128.243 32.1272 128.248 32.1299C128.275 32.1405 128.301 32.1485 128.325 32.1618C128.333 32.1644 128.338 32.1697 128.344 32.1724C128.365 32.183 128.386 32.1963 128.405 32.2096C128.41 32.2123 128.413 32.2176 128.418 32.2203C128.437 32.2335 128.455 32.2495 128.471 32.2654C128.477 32.2708 128.479 32.2761 128.485 32.2814C128.498 32.2974 128.514 32.3133 128.525 32.3293C128.53 32.3372 128.533 32.3425 128.538 32.3505C128.549 32.3665 128.556 32.3824 128.564 32.401C128.567 32.409 128.57 32.417 128.572 32.4276C128.578 32.4436 128.586 32.4622 128.591 32.4781C128.594 32.4888 128.596 32.4994 128.596 32.5127C128.599 32.5286 128.604 32.5446 128.604 32.5632C128.607 32.5765 128.607 32.5924 128.607 32.6084C128.607 32.6217 128.61 32.6376 128.61 32.6509C128.61 32.6695 128.607 32.6908 128.604 32.7094C128.604 32.7201 128.604 32.7307 128.602 32.744C128.599 32.7679 128.594 32.7945 128.588 32.8211C128.586 32.8291 128.586 32.8344 128.586 32.8423C128.578 32.8742 128.57 32.9062 128.559 32.9407C128.559 32.9407 128.559 32.9407 128.559 32.9434C128.413 33.3847 127.99 33.9111 127.448 34.3045C127.49 34.2726 127.533 34.2434 127.573 34.2115C127.48 34.2859 127.381 34.355 127.28 34.4188C127.166 34.4933 127.049 34.5624 126.927 34.6209C126.741 34.7139 126.547 34.7831 126.35 34.8309C126.544 34.7857 126.738 34.7139 126.927 34.6209C126.924 34.6236 126.922 34.6236 126.919 34.6262C126.916 34.6262 126.916 34.6289 126.914 34.6289C126.82 34.6741 126.725 34.7139 126.629 34.7485C126.682 34.7326 126.735 34.7166 126.789 34.698C126.323 34.9532 125.805 35.1101 125.31 35.0675C123.348 34.8921 124.423 33.3661 125.956 32.6243Z" fill="#BF9425"/>
<path d="M124.31 29.6913C124.398 29.4733 124.473 29.25 124.531 29.0214C124.584 28.822 124.621 28.6173 124.648 28.4099C124.675 28.2052 124.688 28.0005 124.691 27.7958C124.693 27.5751 124.683 27.3545 124.661 27.1338C124.632 26.86 124.582 26.5888 124.512 26.3256C124.433 26.0199 124.324 25.7248 124.191 25.4377C124.106 25.2569 124.013 25.0814 123.909 24.9086C123.702 24.5683 123.462 24.252 123.191 23.9595C122.907 23.6512 122.588 23.372 122.239 23.1141C122.08 22.9972 121.915 22.8855 121.748 22.7712C121.623 22.6888 121.498 22.6037 121.381 22.5133C121.32 22.4681 121.261 22.4176 121.211 22.3644C121.173 22.3246 121.139 22.2847 121.117 22.2395C121.096 22.1996 121.083 22.1571 121.08 22.1145C121.08 22.08 121.088 22.0454 121.104 22.0135C121.117 21.9896 121.133 21.9683 121.157 21.9497C121.163 21.9444 121.168 21.9417 121.173 21.9364C121.203 21.9151 121.229 21.8965 121.258 21.8806C121.431 21.7769 121.612 21.6865 121.795 21.6014C121.958 21.5243 122.125 21.4526 122.293 21.3834C122.662 21.2292 123.037 21.083 123.404 20.9182C123.574 20.8411 123.741 20.7587 123.906 20.6736C123.967 20.6417 124.029 20.6098 124.09 20.5779C124.385 20.4131 124.664 20.2243 124.924 20.0143C125.214 19.7804 125.48 19.5225 125.719 19.238C125.953 18.9642 126.161 18.6664 126.339 18.3501C126.424 18.1985 126.504 18.0417 126.575 17.8822C126.671 17.6668 126.754 17.4462 126.817 17.2202C126.894 16.957 126.953 16.6858 126.99 16.412C127.027 16.1382 127.046 15.8617 127.049 15.5826C127.07 15.1014 127.027 14.6308 126.929 14.1789C126.844 13.7934 126.716 13.4212 126.549 13.0703C126.349 12.6555 126.097 12.2727 125.794 11.9324C125.563 11.6719 125.302 11.4353 125.02 11.2306C124.664 10.9754 124.27 10.768 123.85 10.6244C123.638 10.55 123.42 10.4942 123.199 10.4516C122.861 10.3878 122.521 10.3586 122.178 10.3639C121.878 10.3692 121.577 10.4011 121.28 10.4516C121.016 10.4968 120.759 10.558 120.501 10.6324C120.02 10.7706 119.552 10.9461 119.094 11.1535C118.919 11.2332 118.746 11.321 118.576 11.4087C118.307 11.5469 118.042 11.6905 117.784 11.8473C117.35 12.1079 116.93 12.3923 116.524 12.6954C116.005 13.0809 115.508 13.493 115.032 13.929C114.344 14.5643 113.706 15.2502 113.123 15.9813C112.871 16.3004 112.629 16.63 112.4 16.9676C112.225 17.2282 112.057 17.494 111.9 17.7652C111.757 18.0124 111.627 18.265 111.499 18.5255C111.337 18.8552 111.18 19.1955 111.02 19.5358C110.949 19.6873 110.877 19.8415 110.794 19.9851C110.752 20.0595 110.704 20.1339 110.651 20.1951C110.64 20.2057 110.63 20.2137 110.622 20.2243C110.584 20.2615 110.547 20.2934 110.505 20.3121C110.483 20.3227 110.462 20.328 110.438 20.3307C110.417 20.3333 110.393 20.3333 110.369 20.328C110.319 20.32 110.268 20.3014 110.218 20.2775C110.164 20.2536 110.111 20.227 110.058 20.2004C110.005 20.1738 109.946 20.1499 109.891 20.1286C109.821 20.1047 109.752 20.0887 109.681 20.0781C109.58 20.0622 109.479 20.0622 109.377 20.0728C109.271 20.0808 109.167 20.1047 109.064 20.1393C109.029 20.1499 108.995 20.1658 108.963 20.1791C108.947 20.1845 108.931 20.1898 108.915 20.1977C108.846 20.2296 108.782 20.2642 108.718 20.3067C108.676 20.3333 108.633 20.3652 108.591 20.3971C108.527 20.4476 108.466 20.5008 108.407 20.5566C108.248 20.7029 108.093 20.8571 107.937 21.0112C107.836 21.1123 107.735 21.2133 107.628 21.3037C107.538 21.3834 107.442 21.4526 107.341 21.5137C107.325 21.5243 107.309 21.535 107.293 21.5456C107.216 21.5908 107.134 21.6254 107.051 21.652C106.98 21.6732 106.908 21.6865 106.836 21.6918C106.722 21.6998 106.607 21.6892 106.49 21.6599C106.405 21.6387 106.323 21.6094 106.238 21.5775C106.137 21.5376 106.033 21.4871 105.927 21.4393C105.804 21.3861 105.682 21.3303 105.557 21.2931C105.544 21.2877 105.531 21.2877 105.517 21.2824C105.485 21.2744 105.456 21.2638 105.427 21.2611C105.387 21.2558 105.35 21.2585 105.323 21.2744C105.313 21.2798 105.305 21.2877 105.299 21.2957C105.297 21.301 105.294 21.3063 105.294 21.3117C105.291 21.3276 105.294 21.3462 105.299 21.3675C105.31 21.3994 105.331 21.4313 105.355 21.4632C105.395 21.5137 105.443 21.5642 105.496 21.6121C105.552 21.6626 105.613 21.7158 105.672 21.7636C105.77 21.8434 105.871 21.9151 105.975 21.9816C106.161 22.1039 106.352 22.1996 106.549 22.2634C106.746 22.3272 106.945 22.3591 107.144 22.3458C107.219 22.3432 107.293 22.3325 107.365 22.3139C107.485 22.2873 107.602 22.2395 107.713 22.181C107.735 22.1704 107.756 22.1544 107.777 22.1411C107.87 22.0853 107.958 22.0241 108.046 21.955C108.173 21.854 108.301 21.7423 108.428 21.636C108.543 21.543 108.657 21.4526 108.779 21.3755C108.843 21.3356 108.912 21.301 108.981 21.2718C108.992 21.2665 109.003 21.2611 109.016 21.2585C109.066 21.2399 109.117 21.2266 109.17 21.2213C109.226 21.2133 109.279 21.2133 109.335 21.2213C109.425 21.2346 109.508 21.2665 109.582 21.3223C109.611 21.3436 109.635 21.3648 109.659 21.3914C109.718 21.4526 109.76 21.5217 109.79 21.5988C109.819 21.6759 109.835 21.7583 109.843 21.8434C109.848 21.9151 109.845 21.9896 109.84 22.0614C109.829 22.173 109.813 22.282 109.792 22.391C109.752 22.5957 109.699 22.7951 109.638 22.9945C109.574 23.2019 109.502 23.4092 109.428 23.6139C109.311 23.9356 109.189 24.2573 109.064 24.5763C108.979 24.7917 108.896 25.007 108.814 25.2223C108.723 25.4563 108.636 25.6929 108.548 25.9295C108.412 26.2964 108.282 26.6659 108.157 27.0381C108.072 27.2907 107.987 27.5459 107.905 27.7984C107.785 28.1653 107.671 28.5348 107.559 28.9044C107.495 29.1144 107.434 29.3244 107.373 29.5345C107.267 29.9146 107.166 30.2974 107.073 30.6803C107.022 30.8903 106.972 31.103 106.929 31.3157C106.881 31.5443 106.839 31.7703 106.799 31.9989C106.756 32.2488 106.719 32.5014 106.687 32.7539C106.65 33.057 106.618 33.3627 106.591 33.6738C106.575 33.8572 106.562 34.0406 106.554 34.232C106.546 34.3783 106.541 34.5271 106.544 34.676C106.544 34.8143 106.551 34.9525 106.57 35.0854C106.597 35.2556 106.647 35.4177 106.727 35.548C106.772 35.6198 106.825 35.6809 106.892 35.7235C106.921 35.7421 106.956 35.758 106.99 35.766C107.025 35.7766 107.059 35.7766 107.094 35.7766C107.16 35.7713 107.227 35.7474 107.288 35.7128C107.317 35.6969 107.344 35.6783 107.37 35.657C107.397 35.6357 107.421 35.6145 107.447 35.5905C107.514 35.5267 107.578 35.4523 107.634 35.3779C107.708 35.2768 107.777 35.1705 107.841 35.0615C107.95 34.8754 108.046 34.684 108.136 34.4926C108.202 34.3517 108.264 34.2108 108.322 34.0672C108.434 33.7987 108.54 33.5302 108.644 33.2564C108.766 32.932 108.883 32.6024 108.997 32.2727C109.09 32.0042 109.178 31.733 109.263 31.4619C109.399 31.0392 109.526 30.6165 109.646 30.1884C109.766 29.7604 109.88 29.3324 109.984 28.9017C110.109 28.3807 110.22 27.8569 110.316 27.3305C110.385 26.9397 110.446 26.5463 110.497 26.1502C110.558 25.6716 110.603 25.1904 110.64 24.7092C110.672 24.2998 110.699 23.8931 110.731 23.4837C110.763 23.0556 110.802 22.6276 110.856 22.2049C110.888 21.971 110.922 21.7397 110.97 21.5084C111.02 21.2585 111.082 21.0112 111.159 20.7667C111.215 20.5832 111.281 20.3998 111.353 20.2217C111.425 20.0435 111.504 19.8654 111.592 19.6926C111.688 19.4986 111.791 19.3071 111.903 19.1184C112.033 18.8924 112.174 18.6718 112.318 18.4538C112.493 18.1906 112.679 17.9327 112.868 17.6775C113.097 17.3744 113.333 17.0766 113.575 16.7869C113.732 16.6008 113.892 16.4173 114.051 16.2366C114.213 16.0558 114.378 15.8777 114.546 15.7022C114.721 15.5188 114.899 15.338 115.083 15.1599C115.271 14.9764 115.463 14.7956 115.66 14.6202C115.981 14.3277 116.314 14.0459 116.651 13.7748C116.912 13.5674 117.175 13.368 117.446 13.1766C117.683 13.0091 117.922 12.8469 118.169 12.6928C118.443 12.5226 118.727 12.3604 119.017 12.2169C119.036 12.2062 119.057 12.1983 119.076 12.1903C119.307 12.0786 119.541 11.975 119.78 11.8846C119.996 11.8048 120.214 11.7357 120.437 11.6799C120.626 11.6347 120.817 11.5974 121.009 11.5762C121.333 11.539 121.657 11.5363 121.979 11.5762C122.207 11.6054 122.436 11.6559 122.657 11.7251C122.838 11.7835 123.013 11.8553 123.183 11.9431C123.364 12.0334 123.539 12.1398 123.704 12.2621C123.848 12.3631 123.981 12.4748 124.111 12.5944C124.241 12.714 124.364 12.839 124.481 12.9692C124.632 13.1394 124.77 13.3175 124.898 13.5063C125.01 13.6711 125.111 13.8412 125.204 14.0167C125.294 14.1948 125.376 14.3756 125.443 14.5643C125.517 14.7691 125.576 14.9791 125.621 15.1944C125.661 15.3858 125.685 15.5799 125.698 15.7766C125.706 15.9042 125.709 16.0318 125.703 16.1568C125.698 16.3323 125.682 16.5051 125.656 16.6805C125.629 16.8533 125.589 17.0261 125.539 17.1936C125.515 17.276 125.485 17.3611 125.456 17.4435C125.39 17.619 125.31 17.7918 125.217 17.954C125.156 18.063 125.089 18.1693 125.018 18.2703C124.935 18.39 124.845 18.5043 124.749 18.6133C124.629 18.7489 124.502 18.8791 124.369 19.0014C124.297 19.0652 124.225 19.1264 124.151 19.1875C123.978 19.3284 123.797 19.4587 123.614 19.5836C123.375 19.7431 123.127 19.8894 122.875 20.0249C122.856 20.0356 122.838 20.0462 122.816 20.0568C122.667 20.1366 122.513 20.211 122.359 20.2828C122.197 20.3599 122.035 20.4317 121.87 20.5035C121.615 20.6151 121.359 20.7268 121.104 20.8464C121.019 20.8863 120.937 20.9288 120.854 20.9714C120.798 20.998 120.743 21.0245 120.689 21.0538C120.53 21.1389 120.373 21.2346 120.232 21.3462C120.099 21.4472 119.98 21.5589 119.876 21.6865C119.796 21.7849 119.727 21.8912 119.677 22.0055C119.639 22.0906 119.61 22.1783 119.592 22.2661C119.573 22.3565 119.565 22.4495 119.568 22.5399C119.573 22.7021 119.605 22.8589 119.663 23.0105C119.738 23.2045 119.849 23.3826 119.985 23.5501C120.065 23.6485 120.155 23.7415 120.251 23.8346C120.44 24.0207 120.642 24.1935 120.846 24.3636C121.056 24.5364 121.269 24.7066 121.479 24.8794C121.583 24.9645 121.684 25.0495 121.782 25.1373C121.955 25.2888 122.122 25.451 122.277 25.6211C122.38 25.7328 122.479 25.8497 122.569 25.972C122.643 26.0731 122.713 26.1767 122.776 26.2857C122.84 26.3947 122.896 26.5037 122.947 26.6207C123.01 26.7696 123.064 26.9211 123.106 27.078C123.138 27.1976 123.159 27.3226 123.178 27.4449C123.194 27.5698 123.204 27.6948 123.207 27.8197C123.21 27.9526 123.204 28.0829 123.191 28.2158C123.178 28.3461 123.159 28.4764 123.135 28.6066C123.106 28.7582 123.069 28.907 123.024 29.0533C122.997 29.1436 122.965 29.2314 122.931 29.3191C122.899 29.4042 122.861 29.4893 122.827 29.5743C122.742 29.7684 122.646 29.9545 122.545 30.1379C122.439 30.324 122.327 30.5048 122.207 30.6803C122.093 30.8451 121.974 31.0073 121.849 31.1641C121.721 31.3263 121.588 31.4858 121.45 31.64C121.274 31.8367 121.094 32.0281 120.907 32.2142C120.764 32.3551 120.62 32.4934 120.471 32.629C120.317 32.7699 120.158 32.9081 119.996 33.0437C119.74 33.2564 119.48 33.4584 119.209 33.6445C118.993 33.796 118.773 33.9396 118.549 34.0725C118.4 34.1629 118.246 34.24 118.089 34.3198C118.039 34.3464 117.991 34.3756 117.941 34.4022C117.731 34.5059 117.513 34.6016 117.292 34.684C117.045 34.7797 116.795 34.8621 116.54 34.9366C116.202 35.0323 115.862 35.1067 115.513 35.1652C115.298 35.1997 115.077 35.229 114.859 35.2503C114.679 35.2689 114.5 35.2822 114.32 35.2875C114.022 35.2955 113.724 35.2848 113.432 35.2449C113.347 35.2343 113.262 35.2184 113.179 35.1997C113.091 35.1785 113.006 35.1545 112.924 35.12C112.86 35.0934 112.799 35.0588 112.741 35.019C112.706 34.995 112.674 34.9685 112.642 34.9392C112.6 34.8967 112.562 34.8488 112.53 34.7983C112.493 34.7372 112.467 34.6707 112.451 34.6042C112.429 34.5245 112.424 34.4421 112.427 34.3597C112.432 34.2959 112.443 34.2294 112.461 34.1682C112.48 34.1044 112.507 34.0459 112.538 33.9875C112.586 33.8971 112.647 33.812 112.717 33.7322C112.786 33.6525 112.865 33.5754 112.948 33.5063C113.038 33.4292 113.137 33.3601 113.235 33.2936C113.341 33.2218 113.453 33.1553 113.565 33.0942C113.684 33.0277 113.807 32.9639 113.932 32.9054C114.054 32.847 114.176 32.7938 114.301 32.7433C114.623 32.613 114.95 32.5014 115.282 32.4056C115.678 32.2913 116.082 32.193 116.486 32.1052C117.005 31.9909 117.523 31.8872 118.044 31.7729C118.31 31.7144 118.573 31.6533 118.839 31.5788C118.919 31.5576 119.001 31.531 119.084 31.5018C119.161 31.4752 119.238 31.4433 119.31 31.4034C119.334 31.3901 119.355 31.3768 119.374 31.3635C119.376 31.3608 119.376 31.3582 119.379 31.3555C119.4 31.3396 119.419 31.321 119.427 31.3024C119.429 31.2944 119.432 31.2864 119.432 31.2784C119.432 31.2731 119.429 31.2651 119.427 31.2598C119.421 31.2492 119.411 31.2386 119.397 31.2306C119.374 31.2146 119.342 31.2013 119.307 31.1907C119.182 31.1508 119.039 31.1349 118.892 31.1242C118.674 31.1109 118.448 31.1163 118.222 31.1269C118.092 31.1349 117.965 31.1429 117.834 31.1535C117.552 31.1748 117.279 31.1987 117.007 31.2279C116.792 31.2519 116.579 31.2784 116.367 31.3077C116.085 31.3476 115.803 31.3954 115.521 31.4539C114.992 31.5602 114.469 31.6985 113.958 31.8739C113.676 31.9723 113.395 32.0786 113.126 32.2036C113.022 32.2515 112.924 32.3073 112.823 32.3578C112.586 32.4801 112.358 32.613 112.145 32.7699C111.962 32.9028 111.789 33.0517 111.637 33.2165C111.56 33.2989 111.488 33.3866 111.425 33.4797C111.35 33.5887 111.289 33.703 111.244 33.828C111.207 33.929 111.177 34.0353 111.164 34.1417C111.145 34.2799 111.145 34.4181 111.167 34.5537C111.191 34.6999 111.236 34.8435 111.308 34.9764C111.353 35.0668 111.409 35.1492 111.472 35.229C111.544 35.3194 111.627 35.4018 111.714 35.4762C111.908 35.6411 112.126 35.7687 112.366 35.8617C112.533 35.9282 112.709 35.9787 112.889 36.0133C113.054 36.0478 113.222 36.0691 113.389 36.0877C113.706 36.1196 114.022 36.1276 114.338 36.1143C114.819 36.0983 115.295 36.0452 115.766 35.9574C116.353 35.8484 116.933 35.6942 117.499 35.4948C118.071 35.2955 118.626 35.0535 119.166 34.777C119.27 34.7239 119.374 34.6707 119.475 34.6175C120.171 34.2374 120.833 33.796 121.45 33.2989C122.051 32.8124 122.609 32.2727 123.101 31.6772C123.393 31.3236 123.664 30.9514 123.898 30.558C124.047 30.2709 124.191 29.9864 124.31 29.6913ZM108.046 31.6453C108.12 31.1748 108.226 30.7015 108.322 30.239C108.476 29.5025 108.668 28.7927 108.851 28.0749C109.035 27.3571 109.229 26.6446 109.412 25.9295C109.436 25.8418 109.457 25.7514 109.479 25.6636V25.6663C109.638 25.0309 109.792 24.3796 110.018 23.8107C110.066 23.6857 110.087 23.6963 110.09 23.7681C110.098 23.909 110.047 24.2919 110.029 24.4354C110.005 24.6135 109.978 24.789 109.949 24.9671C109.899 25.2888 109.843 25.6078 109.779 25.9242C109.633 26.6579 109.484 27.3943 109.322 28.1228C109.316 28.152 109.306 28.1866 109.298 28.2265C109.298 28.2318 109.295 28.2371 109.295 28.2424C109.284 28.2849 109.274 28.3328 109.261 28.386C109.261 28.3913 109.258 28.3939 109.258 28.3993C109.231 28.5083 109.199 28.6385 109.165 28.7821C109.162 28.7954 109.157 28.8087 109.154 28.8246C109.138 28.8937 109.12 28.9655 109.101 29.04C109.098 29.0533 109.093 29.0692 109.09 29.0825C109.048 29.2473 109.005 29.4228 108.957 29.6062C108.955 29.6115 108.955 29.6195 108.952 29.6248C108.928 29.7205 108.902 29.8163 108.878 29.912C108.878 29.9146 108.875 29.9199 108.875 29.9226C108.662 30.7281 108.412 31.5975 108.218 32.084C108.229 32.06 108.24 32.0335 108.248 32.0069C108.173 32.2009 108.107 32.3498 108.051 32.4216C108.048 32.4243 108.048 32.4243 108.046 32.4269C108.04 32.4322 108.038 32.4375 108.032 32.4429C107.825 32.6795 108.008 31.8899 108.046 31.6453Z" fill="#BF9425"/>
</svg>
