<svg width="18" height="15" viewBox="0 0 18 15" fill="none" xmlns="http://www.w3.org/2000/svg">
<path d="M17.3571 0H0.642857C0.287277 0 0 0.287277 0 0.642857V13.5C0 13.8556 0.287277 14.1429 0.642857 14.1429H17.3571C17.7127 14.1429 18 13.8556 18 13.5V0.642857C18 0.287277 17.7127 0 17.3571 0ZM16.5536 2.22589V12.6964H1.44643V2.22589L0.891964 1.79397L1.68147 0.779464L2.54129 1.44844H15.4607L16.3205 0.779464L17.11 1.79397L16.5536 2.22589ZM15.4607 1.44643L9 6.46875L2.53929 1.44643L1.67946 0.777455L0.889955 1.79196L1.44442 2.22388L8.30692 7.5596C8.50428 7.71292 8.74707 7.79615 8.99699 7.79615C9.2469 7.79615 9.4897 7.71292 9.68705 7.5596L16.5536 2.22589L17.108 1.79397L16.3185 0.779464L15.4607 1.44643Z" fill="#5D4C3C"/>
</svg>
