<svg width="50" height="50" viewBox="0 0 50 50" fill="none" xmlns="http://www.w3.org/2000/svg">
<g id="Header/Menu">
<path id="Vector" d="M32.84 18H17.16C17.072 18 17 18.072 17 18.16V19.44C17 19.528 17.072 19.6 17.16 19.6H32.84C32.928 19.6 33 19.528 33 19.44V18.16C33 18.072 32.928 18 32.84 18ZM32.84 30.48H17.16C17.072 30.48 17 30.552 17 30.64V31.92C17 32.008 17.072 32.08 17.16 32.08H32.84C32.928 32.08 33 32.008 33 31.92V30.64C33 30.552 32.928 30.48 32.84 30.48ZM32.84 24.24H17.16C17.072 24.24 17 24.312 17 24.4V25.68C17 25.768 17.072 25.84 17.16 25.84H32.84C32.928 25.84 33 25.768 33 25.68V24.4C33 24.312 32.928 24.24 32.84 24.24Z" fill="#5D4C3C"/>
</g>
</svg>
