<svg width="60" height="60" viewBox="0 0 60 60" fill="none" xmlns="http://www.w3.org/2000/svg">
<circle cx="30" cy="30" r="30" fill="#E60003"/>
<path d="M24.1797 35H22.2031L17.1328 26.9297V35H15.1562V23.625H17.1328L22.2188 31.7266V23.625H24.1797V35ZM30.0547 35.1562C28.8516 35.1562 27.875 34.7786 27.125 34.0234C26.3802 33.263 26.0078 32.2526 26.0078 30.9922V30.7578C26.0078 29.9141 26.1693 29.1615 26.4922 28.5C26.8203 27.8333 27.2786 27.3151 27.8672 26.9453C28.4557 26.5755 29.112 26.3906 29.8359 26.3906C30.987 26.3906 31.875 26.7578 32.5 27.4922C33.1302 28.2266 33.4453 29.2656 33.4453 30.6094V31.375H27.9219C27.9792 32.0729 28.2109 32.625 28.6172 33.0312C29.0286 33.4375 29.5443 33.6406 30.1641 33.6406C31.0339 33.6406 31.7422 33.2891 32.2891 32.5859L33.3125 33.5625C32.974 34.0677 32.5208 34.4609 31.9531 34.7422C31.3906 35.0182 30.7578 35.1562 30.0547 35.1562ZM29.8281 27.9141C29.3073 27.9141 28.8854 28.0964 28.5625 28.4609C28.2448 28.8255 28.0417 29.3333 27.9531 29.9844H31.5703V29.8438C31.5286 29.2083 31.3594 28.7292 31.0625 28.4062C30.7656 28.0781 30.3542 27.9141 29.8281 27.9141ZM42.3516 32.3828L43.6953 26.5469H45.5469L43.2422 35H41.6797L39.8672 29.1953L38.0859 35H36.5234L34.2109 26.5469H36.0625L37.4297 32.3203L39.1641 26.5469H40.5938L42.3516 32.3828Z" fill="white"/>
</svg>
