<svg width="50" height="50" viewBox="0 0 50 50" fill="none" xmlns="http://www.w3.org/2000/svg">
<g id="icon/Search">
<path id="Vector" d="M34.9399 33.5624L28.4474 27.0699C29.4549 25.7675 29.9999 24.175 29.9999 22.5C29.9999 20.495 29.2174 18.615 27.8024 17.1975C26.3874 15.78 24.5025 15 22.5 15C20.4975 15 18.6125 15.7825 17.1975 17.1975C15.78 18.6125 15 20.495 15 22.5C15 24.5025 15.7825 26.3875 17.1975 27.8024C18.6125 29.2199 20.495 29.9999 22.5 29.9999C24.175 29.9999 25.765 29.4549 27.0674 28.4499L33.5599 34.9399C33.579 34.959 33.6016 34.9741 33.6264 34.9844C33.6513 34.9947 33.678 35 33.7049 35C33.7318 35 33.7585 34.9947 33.7834 34.9844C33.8083 34.9741 33.8309 34.959 33.8499 34.9399L34.9399 33.8524C34.959 33.8334 34.9741 33.8108 34.9844 33.7859C34.9947 33.761 35 33.7344 35 33.7074C35 33.6805 34.9947 33.6538 34.9844 33.6289C34.9741 33.6041 34.959 33.5815 34.9399 33.5624ZM26.46 26.46C25.4 27.5174 23.995 28.0999 22.5 28.0999C21.005 28.0999 19.6 27.5174 18.54 26.46C17.4825 25.4 16.9 23.995 16.9 22.5C16.9 21.005 17.4825 19.5975 18.54 18.54C19.6 17.4825 21.005 16.9 22.5 16.9C23.995 16.9 25.4025 17.48 26.46 18.54C27.5174 19.6 28.0999 21.005 28.0999 22.5C28.0999 23.995 27.5174 25.4025 26.46 26.46Z" fill="#595959"/>
</g>
</svg>
