<svg width="25" height="16" viewBox="0 0 25 16" fill="none" xmlns="http://www.w3.org/2000/svg">
<path d="M22.591 0.000976562H1.82887C0.818781 0.000976562 0 0.819757 0 1.82984V14.1714C0 15.1814 0.818781 16.0002 1.82887 16.0002H22.591C23.601 16.0002 24.4199 15.1815 24.4199 14.1714V1.82984C24.4199 0.819757 23.6011 0.000976562 22.591 0.000976562Z" fill="#F5F5F5"/>
<path d="M0.101562 1.23072H24.3202C24.0724 0.514487 23.3924 0 22.592 0H1.82984C1.02933 0 0.349434 0.514487 0.101562 1.23072Z" fill="#FF4B55"/>
<path d="M24.4199 4.92285H0V6.15353H24.4199V4.92285Z" fill="#FF4B55"/>
<path d="M24.4199 2.46094H0V3.69161H24.4199V2.46094Z" fill="#FF4B55"/>
<path d="M0 8.19346C0 8.42597 0.188539 8.61451 0.421052 8.61451H24.4199V7.38379H0V8.19346Z" fill="#FF4B55"/>
<path d="M24.4199 12.3076H0V13.5383H24.4199V12.3076Z" fill="#FF4B55"/>
<path d="M24.3202 14.7686H0.101562C0.349434 15.4848 1.02937 15.9993 1.82984 15.9993H22.592C23.3925 15.9993 24.0724 15.4848 24.3202 14.7686Z" fill="#FF4B55"/>
<path d="M24.4199 9.8457H0V11.0764H24.4199V9.8457Z" fill="#FF4B55"/>
<path d="M0.421052 8.61501H10.9469C11.1794 8.61501 11.3679 8.42648 11.3679 8.19396V0.421052C11.3679 0.188491 11.1794 0 10.9469 0H1.82887C0.818781 4.76951e-05 0 0.818829 0 1.82891V8.19396C0 8.42652 0.188539 8.61501 0.421052 8.61501Z" fill="#41479B"/>
<path d="M1.18222 0.966598L1.27542 1.24609L1.57003 1.24833C1.60818 1.24867 1.62397 1.29731 1.5933 1.31997L1.35631 1.49496L1.44521 1.77584C1.45675 1.81218 1.41531 1.84233 1.38426 1.8201L1.14459 1.64883L0.904921 1.82015C0.873871 1.84237 0.83252 1.81223 0.843966 1.77589L0.93287 1.49501L0.695873 1.32002C0.665205 1.29731 0.680992 1.24867 0.719148 1.24838L1.01376 1.24614L1.10696 0.966645C1.11898 0.930397 1.1701 0.930397 1.18222 0.966598Z" fill="#F5F5F5"/>
<path d="M1.18222 2.42848L1.27542 2.70797L1.57003 2.71021C1.60818 2.71054 1.62397 2.75915 1.5933 2.78185L1.35631 2.95689L1.44521 3.23777C1.45675 3.27411 1.41531 3.30425 1.38426 3.28203L1.14459 3.11075L0.904921 3.28207C0.873871 3.30425 0.83252 3.27416 0.843966 3.23781L0.93287 2.95694L0.695873 2.7819C0.665205 2.75919 0.680992 2.71059 0.719148 2.71026L1.01376 2.70802L1.10696 2.42852C1.11898 2.39232 1.1701 2.39232 1.18222 2.42848Z" fill="#F5F5F5"/>
<path d="M1.18222 3.89043L1.27542 4.16992L1.57003 4.17216C1.60818 4.17249 1.62397 4.2211 1.5933 4.2438L1.35631 4.41884L1.44521 4.69972C1.45675 4.73606 1.41531 4.7662 1.38426 4.74398L1.14459 4.5727L0.904921 4.74402C0.873871 4.7662 0.83252 4.73615 0.843966 4.69976L0.93287 4.41889L0.695873 4.24385C0.665205 4.22114 0.680992 4.17254 0.719148 4.17221L1.01376 4.16997L1.10696 3.89047C1.11898 3.85423 1.1701 3.85422 1.18222 3.89043Z" fill="#F5F5F5"/>
<path d="M1.18222 5.35234L1.27542 5.63183L1.57003 5.63407C1.60818 5.63441 1.62397 5.68306 1.5933 5.70571L1.35631 5.88075L1.44521 6.16163C1.45675 6.19797 1.41531 6.22812 1.38426 6.20589L1.14459 6.03462L0.904921 6.20594C0.873871 6.22812 0.83252 6.19802 0.843966 6.16168L0.93287 5.8808L0.695873 5.70576C0.665205 5.68315 0.680992 5.63446 0.719148 5.63412L1.01376 5.63188L1.10696 5.35239C1.11898 5.31614 1.1701 5.31614 1.18222 5.35234Z" fill="#F5F5F5"/>
<path d="M1.18222 6.81519L1.27542 7.09469L1.57003 7.09693C1.60818 7.09726 1.62397 7.14586 1.5933 7.16857L1.35631 7.34361L1.44521 7.62448C1.45675 7.66083 1.41531 7.69097 1.38426 7.66874L1.14459 7.49747L0.904921 7.66879C0.873871 7.69097 0.83252 7.66088 0.843966 7.62453L0.93287 7.34366L0.695873 7.16861C0.665205 7.14591 0.680992 7.09731 0.719148 7.09698L1.01376 7.09474L1.10696 6.81524C1.11898 6.77904 1.1701 6.77904 1.18222 6.81519Z" fill="#F5F5F5"/>
<path d="M2.31894 1.68336L2.41213 1.96286L2.70675 1.9651C2.7449 1.96543 2.76069 2.01408 2.73002 2.03674L2.49303 2.21178L2.58193 2.49265C2.59347 2.529 2.55202 2.55914 2.52097 2.53692L2.28131 2.36559L2.04164 2.53692C2.01059 2.55909 1.96924 2.529 1.98069 2.49265L2.06959 2.21178L1.83259 2.03674C1.80192 2.01403 1.81771 1.96543 1.85587 1.9651L2.15048 1.96286L2.24368 1.68336C2.25569 1.64721 2.30687 1.64721 2.31894 1.68336Z" fill="#F5F5F5"/>
<path d="M2.31894 3.14531L2.41213 3.42481L2.70675 3.42705C2.7449 3.42738 2.76069 3.47603 2.73002 3.49869L2.49303 3.67373L2.58193 3.9546C2.59347 3.99095 2.55202 4.02109 2.52097 3.99887L2.28131 3.82754L2.04164 3.99887C2.01059 4.02104 1.96924 3.991 1.98069 3.9546L2.06959 3.67373L1.83259 3.49869C1.80192 3.47608 1.81771 3.42738 1.85587 3.42705L2.15048 3.42481L2.24368 3.14531C2.25569 3.10911 2.30687 3.10911 2.31894 3.14531Z" fill="#F5F5F5"/>
<path d="M2.31894 4.60723L2.41213 4.88672L2.70675 4.88896C2.7449 4.8893 2.76069 4.9379 2.73002 4.9606L2.49303 5.13564L2.58193 5.41652C2.59347 5.45286 2.55202 5.483 2.52097 5.46078L2.28131 5.28946L2.04164 5.46078C2.01059 5.48296 1.96924 5.45286 1.98069 5.41652L2.06959 5.13564L1.83259 4.9606C1.80192 4.9379 1.81771 4.8893 1.85587 4.88896L2.15048 4.88672L2.24368 4.60723C2.25569 4.57103 2.30687 4.57103 2.31894 4.60723Z" fill="#F5F5F5"/>
<path d="M2.31894 6.07008L2.41213 6.34958L2.70675 6.35182C2.7449 6.35215 2.76069 6.40075 2.73002 6.42346L2.49303 6.5985L2.58193 6.87937C2.59347 6.91572 2.55202 6.94586 2.52097 6.92363L2.28131 6.75231L2.04164 6.92363C2.01059 6.94586 1.96924 6.91572 1.98069 6.87937L2.06959 6.5985L1.83259 6.42346C1.80192 6.40075 1.81771 6.35215 1.85587 6.35182L2.15048 6.34958L2.24368 6.07008C2.25569 6.03393 2.30687 6.03393 2.31894 6.07008Z" fill="#F5F5F5"/>
<path d="M3.45175 0.966604L3.54495 1.2461L3.83956 1.24834C3.87772 1.24867 3.8935 1.29732 3.86283 1.31998L3.62584 1.49497L3.71474 1.77585C3.72628 1.81219 3.68484 1.84233 3.65379 1.82011L3.41412 1.64879L3.17445 1.82011C3.1434 1.84233 3.10205 1.81219 3.1135 1.77585L3.2024 1.49497L2.9654 1.31998C2.93474 1.29727 2.95052 1.24862 2.98868 1.24834L3.28329 1.2461L3.37649 0.966604C3.38851 0.930403 3.43968 0.930403 3.45175 0.966604Z" fill="#F5F5F5"/>
<path d="M3.45175 2.42848L3.54495 2.70797L3.83956 2.71022C3.87772 2.71055 3.8935 2.75915 3.86283 2.78185L3.62584 2.9569L3.71474 3.23777C3.72628 3.27412 3.68484 3.30426 3.65379 3.28203L3.41412 3.11071L3.17445 3.28203C3.1434 3.30421 3.10205 3.27412 3.1135 3.23777L3.2024 2.9569L2.9654 2.78185C2.93474 2.75915 2.95052 2.71055 2.98868 2.71022L3.28329 2.70797L3.37649 2.42848C3.38851 2.39233 3.43968 2.39233 3.45175 2.42848Z" fill="#F5F5F5"/>
<path d="M3.45175 3.89043L3.54495 4.16992L3.83956 4.17217C3.87772 4.1725 3.8935 4.2211 3.86283 4.2438L3.62584 4.41885L3.71474 4.69972C3.72628 4.73606 3.68484 4.76621 3.65379 4.74398L3.41412 4.57266L3.17445 4.74398C3.1434 4.76616 3.10205 4.73611 3.1135 4.69972L3.2024 4.41885L2.9654 4.2438C2.93474 4.2211 2.95052 4.1725 2.98868 4.17217L3.28329 4.16992L3.37649 3.89043C3.38851 3.85423 3.43968 3.85423 3.45175 3.89043Z" fill="#F5F5F5"/>
<path d="M3.45175 5.35235L3.54495 5.63184L3.83956 5.63408C3.87772 5.63441 3.8935 5.68306 3.86283 5.70572L3.62584 5.88076L3.71474 6.16163C3.72628 6.19798 3.68484 6.22812 3.65379 6.2059L3.41412 6.03458L3.17445 6.2059C3.1434 6.22807 3.10205 6.19798 3.1135 6.16163L3.2024 5.88076L2.9654 5.70572C2.93474 5.68311 2.95052 5.63441 2.98868 5.63408L3.28329 5.63184L3.37649 5.35235C3.38851 5.31615 3.43968 5.31615 3.45175 5.35235Z" fill="#F5F5F5"/>
<path d="M3.45175 6.8152L3.54495 7.09469L3.83956 7.09694C3.87772 7.09727 3.8935 7.14587 3.86283 7.16857L3.62584 7.34361L3.71474 7.62449C3.72628 7.66083 3.68484 7.69098 3.65379 7.66875L3.41412 7.49743L3.17445 7.66875C3.1434 7.69093 3.10205 7.66083 3.1135 7.62449L3.2024 7.34361L2.9654 7.16857C2.93474 7.14587 2.95052 7.09727 2.98868 7.09694L3.28329 7.09469L3.37649 6.8152C3.38851 6.77905 3.43968 6.77905 3.45175 6.8152Z" fill="#F5F5F5"/>
<path d="M4.58847 1.68336L4.68167 1.96286L4.97628 1.9651C5.01443 1.96543 5.03022 2.01408 4.99955 2.03674L4.76256 2.21178L4.85146 2.49265C4.863 2.529 4.82156 2.55914 4.79051 2.53692L4.55084 2.36559L4.31117 2.53692C4.28012 2.55909 4.23877 2.529 4.25022 2.49265L4.33912 2.21178L4.10212 2.03674C4.07146 2.01403 4.08724 1.96543 4.1254 1.9651L4.42001 1.96286L4.51321 1.68336C4.52518 1.64721 4.5764 1.64721 4.58847 1.68336Z" fill="#F5F5F5"/>
<path d="M4.58847 3.14531L4.68167 3.42481L4.97628 3.42705C5.01443 3.42738 5.03022 3.47603 4.99955 3.49869L4.76256 3.67373L4.85146 3.9546C4.863 3.99095 4.82156 4.02109 4.79051 3.99887L4.55084 3.82754L4.31117 3.99887C4.28012 4.02104 4.23877 3.991 4.25022 3.9546L4.33912 3.67373L4.10212 3.49869C4.07146 3.47608 4.08724 3.42738 4.1254 3.42705L4.42001 3.42481L4.51321 3.14531C4.52518 3.10911 4.5764 3.10911 4.58847 3.14531Z" fill="#F5F5F5"/>
<path d="M4.58847 4.60723L4.68167 4.88672L4.97628 4.88896C5.01443 4.8893 5.03022 4.9379 4.99955 4.9606L4.76256 5.13564L4.85146 5.41652C4.863 5.45286 4.82156 5.483 4.79051 5.46078L4.55084 5.28946L4.31117 5.46078C4.28012 5.48296 4.23877 5.45286 4.25022 5.41652L4.33912 5.13564L4.10212 4.9606C4.07146 4.9379 4.08724 4.8893 4.1254 4.88896L4.42001 4.88672L4.51321 4.60723C4.52518 4.57103 4.5764 4.57103 4.58847 4.60723Z" fill="#F5F5F5"/>
<path d="M4.58847 6.07008L4.68167 6.34958L4.97628 6.35182C5.01443 6.35215 5.03022 6.40075 4.99955 6.42346L4.76256 6.5985L4.85146 6.87937C4.863 6.91572 4.82156 6.94586 4.79051 6.92363L4.55084 6.75231L4.31117 6.92363C4.28012 6.94586 4.23877 6.91572 4.25022 6.87937L4.33912 6.5985L4.10212 6.42346C4.07146 6.40075 4.08724 6.35215 4.1254 6.35182L4.42001 6.34958L4.51321 6.07008C4.52518 6.03393 4.5764 6.03393 4.58847 6.07008Z" fill="#F5F5F5"/>
<path d="M5.72133 0.966598L5.81453 1.24609L6.10914 1.24833C6.14729 1.24867 6.16308 1.29731 6.13241 1.31997L5.89542 1.49496L5.98432 1.77584C5.99586 1.81218 5.95442 1.84233 5.92337 1.8201L5.68365 1.64883L5.44398 1.82015C5.41293 1.84237 5.37158 1.81223 5.38303 1.77589L5.47193 1.49501L5.23494 1.32002C5.20427 1.29731 5.22005 1.24867 5.25821 1.24838L5.55282 1.24614L5.64602 0.966645C5.65809 0.930397 5.70926 0.930397 5.72133 0.966598Z" fill="#F5F5F5"/>
<path d="M5.72133 2.42848L5.81453 2.70797L6.10914 2.71022C6.14729 2.71055 6.16308 2.75915 6.13241 2.78185L5.89542 2.9569L5.98432 3.23777C5.99586 3.27412 5.95442 3.30426 5.92337 3.28203L5.68365 3.11071L5.44398 3.28203C5.41293 3.30421 5.37158 3.27412 5.38303 3.23777L5.47193 2.9569L5.23494 2.78185C5.20427 2.75915 5.22005 2.71055 5.25821 2.71022L5.55282 2.70797L5.64602 2.42848C5.65809 2.39233 5.70926 2.39233 5.72133 2.42848Z" fill="#F5F5F5"/>
<path d="M5.72133 3.89044L5.81453 4.16993L6.10914 4.17217C6.14729 4.17251 6.16308 4.22111 6.13241 4.24381L5.89542 4.41885L5.98432 4.69973C5.99586 4.73607 5.95442 4.76621 5.92337 4.74399L5.68365 4.57262L5.44398 4.74394C5.41293 4.76612 5.37158 4.73602 5.38303 4.69968L5.47193 4.4188L5.23494 4.24376C5.20427 4.22106 5.22005 4.17246 5.25821 4.17212L5.55282 4.16988L5.64602 3.89039C5.65809 3.85424 5.70926 3.85424 5.72133 3.89044Z" fill="#F5F5F5"/>
<path d="M5.72133 5.35235L5.81453 5.63184L6.10914 5.63408C6.14729 5.63441 6.16308 5.68306 6.13241 5.70572L5.89542 5.88076L5.98432 6.16163C5.99586 6.19798 5.95442 6.22812 5.92337 6.2059L5.68365 6.03458L5.44398 6.2059C5.41293 6.22807 5.37158 6.19798 5.38303 6.16163L5.47193 5.88076L5.23494 5.70572C5.20427 5.68311 5.22005 5.63441 5.25821 5.63408L5.55282 5.63184L5.64602 5.35235C5.65809 5.31615 5.70926 5.31615 5.72133 5.35235Z" fill="#F5F5F5"/>
<path d="M5.72133 6.8152L5.81453 7.09469L6.10914 7.09694C6.14729 7.09727 6.16308 7.14587 6.13241 7.16857L5.89542 7.34361L5.98432 7.62449C5.99586 7.66083 5.95442 7.69098 5.92337 7.66875L5.68365 7.49743L5.44398 7.66875C5.41293 7.69093 5.37158 7.66083 5.38303 7.62449L5.47193 7.34361L5.23494 7.16857C5.20427 7.14587 5.22005 7.09727 5.25821 7.09694L5.55282 7.09469L5.64602 6.8152C5.65809 6.77905 5.70926 6.77905 5.72133 6.8152Z" fill="#F5F5F5"/>
<path d="M6.858 1.68336L6.9512 1.96286L7.24581 1.9651C7.28397 1.96543 7.29975 2.01408 7.26908 2.03674L7.03209 2.21178L7.12099 2.49265C7.13253 2.529 7.09109 2.55914 7.06004 2.53692L6.82037 2.36559L6.5807 2.53692C6.54965 2.55909 6.5083 2.529 6.51975 2.49265L6.60865 2.21178L6.37165 2.03674C6.34099 2.01403 6.35677 1.96543 6.39493 1.9651L6.68954 1.96286L6.78274 1.68336C6.7948 1.64721 6.84593 1.64721 6.858 1.68336Z" fill="#F5F5F5"/>
<path d="M6.858 3.14531L6.9512 3.42481L7.24581 3.42705C7.28397 3.42738 7.29975 3.47603 7.26908 3.49869L7.03209 3.67373L7.12099 3.9546C7.13253 3.99095 7.09109 4.02109 7.06004 3.99887L6.82037 3.82754L6.5807 3.99887C6.54965 4.02104 6.5083 3.991 6.51975 3.9546L6.60865 3.67373L6.37165 3.49869C6.34099 3.47608 6.35677 3.42738 6.39493 3.42705L6.68954 3.42481L6.78274 3.14531C6.7948 3.10911 6.84593 3.10911 6.858 3.14531Z" fill="#F5F5F5"/>
<path d="M6.858 4.60723L6.9512 4.88672L7.24581 4.88896C7.28397 4.8893 7.29975 4.9379 7.26908 4.9606L7.03209 5.13564L7.12099 5.41652C7.13253 5.45286 7.09109 5.483 7.06004 5.46078L6.82037 5.28946L6.5807 5.46078C6.54965 5.48296 6.5083 5.45286 6.51975 5.41652L6.60865 5.13564L6.37165 4.9606C6.34099 4.9379 6.35677 4.8893 6.39493 4.88896L6.68954 4.88672L6.78274 4.60723C6.7948 4.57103 6.84593 4.57103 6.858 4.60723Z" fill="#F5F5F5"/>
<path d="M6.858 6.07008L6.9512 6.34958L7.24581 6.35182C7.28397 6.35215 7.29975 6.40075 7.26908 6.42346L7.03209 6.5985L7.12099 6.87937C7.13253 6.91572 7.09109 6.94586 7.06004 6.92363L6.82037 6.75231L6.5807 6.92363C6.54965 6.94586 6.5083 6.91572 6.51975 6.87937L6.60865 6.5985L6.37165 6.42346C6.34099 6.40075 6.35677 6.35215 6.39493 6.35182L6.68954 6.34958L6.78274 6.07008C6.7948 6.03393 6.84593 6.03393 6.858 6.07008Z" fill="#F5F5F5"/>
<path d="M7.99081 0.966604L8.08401 1.2461L8.37862 1.24834C8.41678 1.24867 8.43256 1.29732 8.4019 1.31998L8.1649 1.49497L8.2538 1.77585C8.26535 1.81219 8.2239 1.84233 8.19285 1.82011L7.95318 1.64879L7.71351 1.82011C7.68246 1.84233 7.64111 1.81219 7.65256 1.77585L7.74146 1.49497L7.50447 1.31998C7.4738 1.29727 7.48959 1.24862 7.52774 1.24834L7.82235 1.2461L7.91555 0.966604C7.92752 0.930403 7.97875 0.930403 7.99081 0.966604Z" fill="#F5F5F5"/>
<path d="M7.99081 2.42848L8.08401 2.70797L8.37862 2.71022C8.41678 2.71055 8.43256 2.75915 8.4019 2.78185L8.1649 2.9569L8.2538 3.23777C8.26535 3.27412 8.2239 3.30426 8.19285 3.28203L7.95318 3.11071L7.71351 3.28203C7.68246 3.30421 7.64111 3.27412 7.65256 3.23777L7.74146 2.9569L7.50447 2.78185C7.4738 2.75915 7.48959 2.71055 7.52774 2.71022L7.82235 2.70797L7.91555 2.42848C7.92752 2.39233 7.97875 2.39233 7.99081 2.42848Z" fill="#F5F5F5"/>
<path d="M7.99081 3.89043L8.08401 4.16992L8.37862 4.17217C8.41678 4.1725 8.43256 4.2211 8.4019 4.2438L8.1649 4.41885L8.2538 4.69972C8.26535 4.73606 8.2239 4.76621 8.19285 4.74398L7.95318 4.57266L7.71351 4.74398C7.68246 4.76616 7.64111 4.73611 7.65256 4.69972L7.74146 4.41885L7.50447 4.2438C7.4738 4.2211 7.48959 4.1725 7.52774 4.17217L7.82235 4.16992L7.91555 3.89043C7.92752 3.85423 7.97875 3.85423 7.99081 3.89043Z" fill="#F5F5F5"/>
<path d="M7.99081 5.35235L8.08401 5.63184L8.37862 5.63408C8.41678 5.63441 8.43256 5.68306 8.4019 5.70572L8.1649 5.88076L8.2538 6.16163C8.26535 6.19798 8.2239 6.22812 8.19285 6.2059L7.95318 6.03458L7.71351 6.2059C7.68246 6.22807 7.64111 6.19798 7.65256 6.16163L7.74146 5.88076L7.50447 5.70572C7.4738 5.68311 7.48959 5.63441 7.52774 5.63408L7.82235 5.63184L7.91555 5.35235C7.92752 5.31615 7.97875 5.31615 7.99081 5.35235Z" fill="#F5F5F5"/>
<path d="M7.99081 6.8152L8.08401 7.09469L8.37862 7.09694C8.41678 7.09727 8.43256 7.14587 8.4019 7.16857L8.1649 7.34361L8.2538 7.62449C8.26535 7.66083 8.2239 7.69098 8.19285 7.66875L7.95318 7.49743L7.71351 7.66875C7.68246 7.69093 7.64111 7.66083 7.65256 7.62449L7.74146 7.34361L7.50447 7.16857C7.4738 7.14587 7.48959 7.09727 7.52774 7.09694L7.82235 7.09469L7.91555 6.8152C7.92752 6.77905 7.97875 6.77905 7.99081 6.8152Z" fill="#F5F5F5"/>
<path d="M9.12753 1.68336L9.22073 1.96286L9.51534 1.9651C9.5535 1.96543 9.56928 2.01408 9.53862 2.03674L9.30162 2.21178L9.39052 2.49265C9.40206 2.529 9.36062 2.55914 9.32957 2.53692L9.0899 2.36559L8.85023 2.53692C8.81918 2.55909 8.77783 2.529 8.78928 2.49265L8.87818 2.21178L8.64119 2.03674C8.61052 2.01403 8.6263 1.96543 8.66446 1.9651L8.95907 1.96286L9.05227 1.68336C9.06429 1.64721 9.11546 1.64721 9.12753 1.68336Z" fill="#F5F5F5"/>
<path d="M9.12753 3.14531L9.22073 3.42481L9.51534 3.42705C9.5535 3.42738 9.56928 3.47603 9.53862 3.49869L9.30162 3.67373L9.39052 3.9546C9.40206 3.99095 9.36062 4.02109 9.32957 3.99887L9.0899 3.82754L8.85023 3.99887C8.81918 4.02104 8.77783 3.991 8.78928 3.9546L8.87818 3.67373L8.64119 3.49869C8.61052 3.47608 8.6263 3.42738 8.66446 3.42705L8.95907 3.42481L9.05227 3.14531C9.06429 3.10911 9.11546 3.10911 9.12753 3.14531Z" fill="#F5F5F5"/>
<path d="M9.12753 4.60723L9.22073 4.88672L9.51534 4.88896C9.5535 4.8893 9.56928 4.9379 9.53862 4.9606L9.30162 5.13564L9.39052 5.41652C9.40206 5.45286 9.36062 5.483 9.32957 5.46078L9.0899 5.28946L8.85023 5.46078C8.81918 5.48296 8.77783 5.45286 8.78928 5.41652L8.87818 5.13564L8.64119 4.9606C8.61052 4.9379 8.6263 4.8893 8.66446 4.88896L8.95907 4.88672L9.05227 4.60723C9.06429 4.57103 9.11546 4.57103 9.12753 4.60723Z" fill="#F5F5F5"/>
<path d="M9.12753 6.07008L9.22073 6.34958L9.51534 6.35182C9.5535 6.35215 9.56928 6.40075 9.53862 6.42346L9.30162 6.5985L9.39052 6.87937C9.40206 6.91572 9.36062 6.94586 9.32957 6.92363L9.0899 6.75231L8.85023 6.92363C8.81918 6.94586 8.77783 6.91572 8.78928 6.87937L8.87818 6.5985L8.64119 6.42346C8.61052 6.40075 8.6263 6.35215 8.66446 6.35182L8.95907 6.34958L9.05227 6.07008C9.06429 6.03393 9.11546 6.03393 9.12753 6.07008Z" fill="#F5F5F5"/>
<path d="M10.2603 0.966604L10.3535 1.2461L10.6482 1.24834C10.6863 1.24867 10.7021 1.29732 10.6714 1.31998L10.4344 1.49497L10.5233 1.77585C10.5349 1.81219 10.4934 1.84233 10.4624 1.82011L10.2227 1.64879L9.98305 1.82011C9.952 1.84233 9.91064 1.81219 9.92209 1.77585L10.011 1.49497L9.774 1.31998C9.74333 1.29727 9.75912 1.24862 9.79727 1.24834L10.0919 1.2461L10.1851 0.966604C10.1971 0.930403 10.2482 0.930403 10.2603 0.966604Z" fill="#F5F5F5"/>
<path d="M10.2603 2.42848L10.3535 2.70797L10.6482 2.71022C10.6863 2.71055 10.7021 2.75915 10.6714 2.78185L10.4344 2.9569L10.5233 3.23777C10.5349 3.27412 10.4934 3.30426 10.4624 3.28203L10.2227 3.11071L9.98305 3.28203C9.952 3.30421 9.91064 3.27412 9.92209 3.23777L10.011 2.9569L9.774 2.78185C9.74333 2.75915 9.75912 2.71055 9.79727 2.71022L10.0919 2.70797L10.1851 2.42848C10.1971 2.39233 10.2482 2.39233 10.2603 2.42848Z" fill="#F5F5F5"/>
<path d="M10.2603 3.89043L10.3535 4.16992L10.6482 4.17217C10.6863 4.1725 10.7021 4.2211 10.6714 4.2438L10.4344 4.41885L10.5233 4.69972C10.5349 4.73606 10.4934 4.76621 10.4624 4.74398L10.2227 4.57266L9.98305 4.74398C9.952 4.76616 9.91064 4.73611 9.92209 4.69972L10.011 4.41885L9.774 4.2438C9.74333 4.2211 9.75912 4.1725 9.79727 4.17217L10.0919 4.16992L10.1851 3.89043C10.1971 3.85423 10.2482 3.85423 10.2603 3.89043Z" fill="#F5F5F5"/>
<path d="M10.2603 5.35235L10.3535 5.63184L10.6482 5.63408C10.6863 5.63441 10.7021 5.68306 10.6714 5.70572L10.4344 5.88076L10.5233 6.16163C10.5349 6.19798 10.4934 6.22812 10.4624 6.2059L10.2227 6.03458L9.98305 6.2059C9.952 6.22807 9.91064 6.19798 9.92209 6.16163L10.011 5.88076L9.774 5.70572C9.74333 5.68311 9.75912 5.63441 9.79727 5.63408L10.0919 5.63184L10.1851 5.35235C10.1971 5.31615 10.2482 5.31615 10.2603 5.35235Z" fill="#F5F5F5"/>
<path d="M10.2603 6.8152L10.3535 7.09469L10.6482 7.09694C10.6863 7.09727 10.7021 7.14587 10.6714 7.16857L10.4344 7.34361L10.5233 7.62449C10.5349 7.66083 10.4934 7.69098 10.4624 7.66875L10.2227 7.49743L9.98305 7.66875C9.952 7.69093 9.91064 7.66083 9.92209 7.62449L10.011 7.34361L9.774 7.16857C9.74333 7.14587 9.75912 7.09727 9.79727 7.09694L10.0919 7.09469L10.1851 6.8152C10.1971 6.77905 10.2482 6.77905 10.2603 6.8152Z" fill="#F5F5F5"/>
</svg>
